<?xml version="1.0" encoding="utf-8"?>
<!-- Generator: Adobe Illustrator 16.0.4, SVG Export Plug-In . SVG Version: 6.00 Build 0)  -->
<!DOCTYPE svg PUBLIC "-//W3C//DTD SVG 1.1//EN" "http://www.w3.org/Graphics/SVG/1.1/DTD/svg11.dtd">
<svg version="1.1" id="Layer_1" xmlns="http://www.w3.org/2000/svg" xmlns:xlink="http://www.w3.org/1999/xlink" x="0px" y="0px"
	 width="400px" height="300px" viewBox="346 347.534 400 300" enable-background="new 346 347.534 400 300" xml:space="preserve">
<g id="Layer_1_1_">
</g>
<g id="lines">
	<g>
		<g>
			<g>
				<path fill="#8C87CF" d="M443.602,574.871c-2.494,0-19.737,0-19.737,0c-0.301,0-0.422,0.128-0.545,0.543l-8.962,33.636
					c-0.07,0.295,0.077,0.543,0.548,0.543h19.12c0.407,0,0.624-0.095,0.754-0.543l3.521-13.021c0.095-0.343-0.034-0.542-0.534-0.542
					h-8.081c-0.283,0-0.441,0.165-0.542,0.542l-2.629,9.766h-2.232l7.289-27.092c2.698,0,6.673,0,8.354,0
					c3.217,0,6.061,3.785,4.272,10.555l-2.315,8.604c-1.201,4.445-2.665,5.051-4.125,5.842c-0.334,0.182-0.54,0.506-0.641,0.886
					l-1.197,4.42c-0.105,0.393,0.162,0.584,0.57,0.584c3.195,0,11.556-0.933,14.391-11.692l2.345-8.637
					C455.791,579.685,448.108,574.871,443.602,574.871z"/>
			</g>
			<g>
				<path fill="#8C87CF" d="M668.866,574.207c-3.93,0-9.928,0.182-11.933,7.06l-1.292,4.334c-0.109,0.378,0.028,0.543,0.524,0.543
					h7.479c0.354,0,0.497-0.215,0.594-0.546c0,0,1.001-3.747,1.29-4.84c0.29-1.093,0.779-2.21,2.633-2.21
					c1.918,0,1.7,1.497,1.534,2.21l-0.741,2.881c-0.376,1.45-2.219,2.769-2.991,3.314l-9.375,7.026
					c-0.785,0.602-4.202,3.682-5.278,7.984l-1.038,4.119l-0.755,2.839c-0.106,0.385,0.119,0.55,0.526,0.55h19.946
					c0.372,0,0.527-0.146,0.645-0.539l2.919-11.402c0.09-0.379-0.136-0.536-0.558-0.536h-6.833c-0.332,0-0.453,0.173-0.544,0.538
					l-2.182,8.681h-3.856l1.079-4.249c0.75-2.994,2.851-5.031,3.993-6.029l8.852-6.663c1.881-1.5,3.265-3.129,3.766-5.608
					l0.355-2.396C678.128,576.438,672.795,574.207,668.866,574.207z"/>
			</g>
			<g>
				<path fill="#8C87CF" d="M631.059,610.015c-5.979,0-10.357-2.029-9.651-4.888l1.162-4.341c0.085-0.284,0.24-0.541,0.532-0.541
					h7.581c0.482,0,0.641,0.178,0.528,0.549l-1.076,3.659c-0.321,1.23,0.67,1.764,1.786,1.764c1.45,0,2.568-0.815,2.848-1.764
					s0.667-2.267-0.387-3.082l-6.298-5.007c-2.117-1.802-3.406-3.262-2.858-5.394c1.076-4.199,4.62-4.827,12.104-4.827
					c5.907,0,10.251,2.418,9.605,4.827l-0.89,3.31c-0.111,0.362-0.337,0.549-0.648,0.549h-7.369c-0.416,0-0.647-0.146-0.538-0.55
					l0.468-1.688c0.32-1.23-0.701-1.63-1.819-1.63c-2.787,0-3.283,1.738-2.197,2.654l6.014,4.764
					c1.988,1.726,4.097,3.438,3.334,6.21C642.057,609.053,638.541,610.015,631.059,610.015z"/>
			</g>
			<g>
				<path fill="#8C87CF" d="M506.629,591.751c0.2-0.788-0.847-1.73-2.223-1.73c-1.196,0-2.264,0.93-2.481,1.942l-0.177,0.711
					c-0.06,0.242-0.247,0.417-0.558,0.579l-8.609,4.636c-0.441,0.244-0.741,0.052-0.659-0.329c0.154-0.718,1.251-4.665,1.251-4.665
					c0.711-3.234,5.785-6.711,12.367-6.711c4.87,0,10.406,2.911,9.338,6.711l-3.889,14.439c-0.4,1.493-0.817,2.133-2.304,2.133
					l-11.238,0.018c-5.02,0.013-8.501-1.451-7.635-4.629c0.897-3.289,1.849-3.861,3.829-5.127l10.95-5.924
					c0.171-0.096,0.339,0.011,0.282,0.222c0,0-0.865,3.372-0.945,3.673c-0.066,0.245-0.224,0.348-0.577,0.543l-3.593,1.89
					l-0.608,2.234l-0.556,2.042c-0.32,1.23,0.702,1.63,1.819,1.63c1.45,0,2.494-0.445,2.814-1.63l1.559-5.771l0.47-1.831
					L506.629,591.751z"/>
			</g>
			<g>
				<path fill="#8C87CF" d="M614.754,587.267l-4.58,17.237c-0.32,1.185-1.452,1.722-2.902,1.722c-1.117,0-2.053-0.491-1.731-1.722
					l4.626-17.231c0.095-0.355-0.163-0.536-0.51-0.536h-7.542c-0.249,0-0.396,0.125-0.508,0.54l-4.2,15.709
					c-1.36,5.07,3.988,6.495,9.009,6.481h9.695c1.155,0,1.387-0.537,1.697-1.622l5.516-20.566c0.104-0.383-0.118-0.542-0.54-0.542
					h-7.527C614.961,586.736,614.853,586.895,614.754,587.267z"/>
			</g>
			<g>
				<path fill="#8C87CF" d="M554.872,609.472h-7.728c-0.426,0-0.611-0.11-0.495-0.543l4.502-16.661
					c0.243-0.962-0.804-1.886-2.082-1.886s-2.49,0.314-2.97,1.886l-3.035,11.24c-0.32,1.193,0.228,2.166,1.028,2.166h1.726
					c0.373,0,0.633,0.169,0.516,0.543l-0.792,2.716c-0.083,0.287-0.24,0.539-0.539,0.539h-4.932c-2.625,0-6.174-1.287-5.151-5.106
					c2.002-7.476,2.605-9.729,3.187-11.897c1.336-4.988,5.38-6.324,8.449-6.324c5.251,0,6.13,3.479,6.13,3.479l3.829-14.331
					c0.112-0.399,0.257-0.542,0.584-0.542h6.82c0.383,0,0.674,0.116,0.561,0.542l-9.009,33.646
					C555.368,609.315,555.192,609.472,554.872,609.472z"/>
			</g>
			<g>
				<path fill="#8C87CF" d="M529.562,587.224l-7.089,18.814l3.076-18.804c0.071-0.383-0.065-0.549-0.521-0.549
					c-0.575,0-6.713,0-6.713,0c-0.385,0-0.622,0.201-0.653,0.543l-1.462,22.786c-0.122,1.899-0.422,3.256-1.646,3.256h-2.808
					c-0.311,0-0.474,0.232-0.56,0.548l-0.732,2.707c-0.109,0.343,0.061,0.542,0.547,0.542h3.562h4.264
					c3.069,0,6.99-2.789,8.645-7.053l10.017-22.789c0.137-0.31-0.076-0.54-0.522-0.54h-6.796
					C529.819,586.686,529.684,586.901,529.562,587.224z"/>
			</g>
			<g>
				<path fill="#8C87CF" d="M460.962,603.991c-0.271,1.162,0.667,2.047,2.043,2.047c1.196,0,2.329-0.797,2.545-1.812
					c0,0,0.363-1.325,0.367-1.343c0.06-0.248,0.237-0.444,0.451-0.582l8.718-4.69c0.442-0.244,0.754-0.049,0.66,0.329l-1.428,5.365
					c-0.711,3.232-5.785,6.709-12.367,6.709c-4.87,0-10.406-2.91-9.338-6.709l3.374-12.534c0.86-2.776,4.723-4.628,12.205-4.628
					c5.021,0,10.15,2.22,9.504,4.628c0,0-0.743,2.668-0.797,2.935c-0.053,0.268-0.228,0.551-0.563,0.748
					c-0.302,0.177-13.175,7.209-13.175,7.209c-0.222,0.123-0.373-0.007-0.323-0.198c0.048-0.193,0.905-3.536,0.905-3.536
					c0.065-0.245,0.184-0.373,0.384-0.49l3.785-2.082l0.879-3.212c0.32-1.23-0.661-1.762-1.778-1.762
					c-1.45,0-2.535,0.577-2.855,1.762l-1.349,5.023L460.962,603.991z"/>
			</g>
			<g>
				<path fill="#8C87CF" d="M568.037,603.991c-0.272,1.162,0.666,2.047,2.043,2.047c1.195,0,2.328-0.797,2.545-1.812
					c0,0,0.362-1.325,0.367-1.343c0.059-0.248,0.235-0.444,0.45-0.582l8.718-4.69c0.442-0.244,0.754-0.049,0.659,0.329l-1.428,5.365
					c-0.71,3.232-5.784,6.709-12.365,6.709c-4.87,0-10.406-2.91-9.34-6.709l3.375-12.534c0.859-2.776,4.723-4.628,12.205-4.628
					c5.02,0,10.149,2.22,9.504,4.628c0,0-0.745,2.668-0.798,2.935c-0.054,0.268-0.229,0.551-0.563,0.748
					c-0.302,0.177-13.175,7.209-13.175,7.209c-0.223,0.123-0.373-0.007-0.324-0.198c0.049-0.193,0.905-3.536,0.905-3.536
					c0.065-0.245,0.185-0.373,0.385-0.49l3.785-2.082l0.879-3.212c0.319-1.23-0.661-1.762-1.778-1.762
					c-1.449,0-2.534,0.577-2.855,1.762l-1.349,5.023L568.037,603.991z"/>
			</g>
			<g>
				<path fill="#8C87CF" d="M493.26,574.75c0,0-7.268,0-7.651,0c-0.335,0-0.462,0.228-0.543,0.541l-7.454,27.521
					c-1.37,4.68,1.68,6.668,5.334,6.668c0.159,0,3.392,0,3.8,0c0.407,0,0.614-0.081,0.713-0.495l0.695-2.603
					c0.091-0.475,0-0.648-0.437-0.648h-1.182c-0.701,0-0.777-0.444-0.397-1.859l3.203-11.992l0.606-2.27l3.824-14.319
					C493.855,574.953,493.807,574.75,493.26,574.75z"/>
			</g>
			<g>
				<path fill="#8C87CF" d="M600.325,574.75c0,0-7.269,0-7.652,0c-0.336,0-0.462,0.228-0.544,0.541l-7.453,27.521
					c-1.37,4.68,1.681,6.668,5.334,6.668c0.158,0,3.393,0,3.8,0s0.615-0.081,0.713-0.495l0.694-2.603
					c0.092-0.475,0.002-0.648-0.436-0.648H593.6c-0.702,0-0.777-0.444-0.397-1.859l3.202-11.992l0.605-2.27l3.825-14.319
					C600.92,574.953,600.871,574.75,600.325,574.75z"/>
			</g>
		</g>
		<g>
			<g>
				<path fill="#8C87CF" d="M553.106,425.669c0.048,1.208,1.476,1.478,2.138,0.579c1.53-2.078,2.059-4.688,3.898-6.63
					c1.767-1.864,4.75-1.725,6.956-2.63c0.291-0.12,0.308-0.496,0-0.611C560.556,414.325,552.868,419.663,553.106,425.669z"/>
			</g>
			<g>
				<path fill="#8C87CF" d="M526.407,414.105c-0.696,0.006-0.736,0.907-0.154,1.14c2.292,0.918,4.578,1.678,5.979,3.794
					c1.369,2.069,1.189,4.596,2.301,6.708c0.469,0.89,2.137,0.794,2.29-0.3c0.393-2.802-1.143-5.897-2.97-7.989
					C531.875,415.195,529.442,414.076,526.407,414.105z"/>
			</g>
			<g>
				<path fill="#8C87CF" d="M526.491,399.647c0.211,0.914,0.347,2.214,0.975,2.961c1.268,1.507,5.168-1.895,5.917-2.793
					c2.146-2.578-0.799-4.436-2.773-5.879c-0.914-0.668-2.303-1.869-3.521-1.799c-1.566,0.089-1.552,1.558-1.452,2.806
					C525.821,396.53,526.131,398.092,526.491,399.647z M528.41,400.815C528.357,400.827,528.364,400.819,528.41,400.815
					L528.41,400.815z M529.851,395.879c0.434,0.317,2.265,1.473,2.32,2c0.065,0.632-1.14,1.448-1.558,1.755
					c-0.544,0.401-1.154,0.757-1.777,1.025c-0.004-0.018-0.009-0.035-0.014-0.052c-0.515-1.847-0.938-3.758-1.16-5.664
					c-0.015-0.185-0.029-0.37-0.044-0.554c0.214,0.116,0.42,0.253,0.606,0.365C528.789,395.092,529.32,395.491,529.851,395.879z"/>
			</g>
			<g>
				<path fill="#8C87CF" d="M574.195,403.413c0.366-0.067,0.579-0.276,0.673-0.531c0.851-1.093,0.775-2.996,0.776-4.259
					c0.001-1.696-0.316-3.701-1.042-5.246c-0.248-0.528-0.925-0.585-1.386-0.363c-1.118,0.539-2.137,1.769-3.026,2.614
					c-0.898,0.853-2.793,2.73-2.793,4.082C567.398,401.685,572.624,403.703,574.195,403.413z M573.214,395.422
					c0.254,0.951,0.359,2.021,0.399,2.901c0.032,0.703,0.184,2.354-0.214,3.134c-0.677-0.096-1.848-0.781-2.323-1.033
					c-0.416-0.22-0.814-0.473-1.211-0.727c-0.075-0.047-0.141-0.108-0.213-0.16c0.082-0.131,0.162-0.265,0.251-0.393
					C570.648,398.022,571.928,396.424,573.214,395.422z"/>
			</g>
			<g>
				<path fill="#8C87CF" d="M545.35,439.901c3.04,1.195,6.811,2.101,9.253-0.515c0.937-1.003-0.47-2.34-1.493-1.477
					c-0.281,0.237-1.32,1.364-1.548,1.457c-0.532,0.216-2.431-0.245-2.955-0.349c-1.427-0.281-3.104-1.257-4.529-1.233
					c-1.912,0.033-3.819,0.744-5.711,0.344c-1.437-0.305-1.562-2.015-3.067-1.914c0,0.002,0.001,0.004,0.001,0.006
					c-0.788,0.008-1.309,1.208-0.448,1.637c0.492,0.246,0.753,1.268,1.285,1.59c0.743,0.451,1.394,0.562,2.26,0.696
					C540.833,440.522,542.956,438.96,545.35,439.901z"/>
			</g>
			<g>
				<path fill="#8C87CF" d="M531.209,405.968c-0.419,0.374-0.364,1.051,0,1.433c2.132,2.235,3.767,4.866,5.603,7.339
					c1.271,1.711,1.894,2.352,4.166,2.058c1.277-0.166,1.293-2.193,0-2.026c-2.142,0.277-2.915-1.702-4.033-3.256
					c-1.085-1.509-2.116-3.013-3.301-4.422c0.868,0.018,1.903,0.441,2.685-0.001c0.997-0.563,1.333-1.349,2.028-2.197
					c1.64-2.003,3.666-0.071,5.183,0.758c0.942,0.515,2.158,0.366,3.101-0.053c1.839-0.818,4.467-2.7,5.682,0.043
					c0.437,0.986,0.958,1.723,2.014,2.043c0.442,0.134,1.462,0.251,1.751-0.209c-0.695,1.106-1.553,2.113-2.367,3.13
					c-0.6,0.748-1.182,1.509-1.763,2.272c-1.139,1.497-1.339,1.958-3.145,1.738c-0.26-0.032-0.465,0.027-0.62,0.138
					c0.146-0.221,0.263-0.453,0.296-0.689c0.077-0.552-0.511-0.983-0.966-0.558c-0.317,0.297-0.498,0.77-0.721,1.143
					c-0.124,0.208-0.242,0.421-0.357,0.634c-0.046,0.083-0.087,0.167-0.125,0.254c0.004-0.009-0.182,0.383-0.055,0.227
					c-0.282,0.348-0.019,0.816,0.429,0.738c0.459-0.081,0.714-0.676,0.962-1.02c0.074-0.104,0.16-0.213,0.246-0.326
					c-0.19,0.569,0.115,1.387,0.91,1.483c2.73,0.332,3.294-0.642,4.895-2.741c0.868-1.138,1.774-2.244,2.648-3.376
					c0.621-0.804,2.066-2.165,2.066-3.248c0-1.274-1.738-1.562-2.686-1.563c-2.069-0.001-1.807-2.804-3.847-3.334
					c-2.207-0.574-3.804,0.223-5.727,1.229c-1.846,0.966-3.716-1.484-5.714-1.584c-1.649-0.082-3.278,0.941-4.142,2.27
					c-0.803,1.234-1.918,0.761-3.163,0.62C532.419,404.832,531.695,405.536,531.209,405.968z"/>
			</g>
			<g>
				<path fill="#8C87CF" d="M571.229,416.25c-0.513-0.068-0.964,0.337-1.259,0.7c-0.15,0.186-0.047,0.415,0.185,0.445
					c0.134,0.018,0.28-0.033,0.417-0.099c0.009,0.011,0.014,0.017,0.024,0.031c0.089,0.079,0.183,0.149,0.283,0.214
					c0.249,0.161,0.42,0.432,0.642,0.628c0.416,0.371,1.048,0.113,1.078-0.445C572.645,416.929,571.971,416.35,571.229,416.25z"/>
			</g>
			<g>
				<path fill="#8C87CF" d="M541.114,420.659c-0.387,0.221-0.594,0.713-0.465,1.144c0.472,1.582,0.953,3.163,1.376,4.758
					c0.122,0.457,0.526,0.714,0.977,0.744c1.261,0.083,2.521,0.166,3.782,0.25c0.207,0.014,0.376-0.03,0.518-0.106
					c0.005-0.003,0.01-0.006,0.016-0.009c0.035-0.02,0.068-0.041,0.099-0.065c0.035-0.025,0.067-0.055,0.099-0.086
					c0.001-0.001,0.003-0.003,0.005-0.005c0.111-0.116,0.2-0.269,0.241-0.473c0.227-1.103,0.58-2.18,0.925-3.25
					c0.235-0.733,0.686-1.486,0.134-2.178C546.928,419.009,543.513,419.293,541.114,420.659z M542.839,422.063
					c1.374-0.576,2.96-0.669,4.105,0.301c-0.349,1.026-0.686,2.062-0.948,3.113c-0.737-0.049-1.474-0.098-2.211-0.146
					C543.483,424.237,543.165,423.149,542.839,422.063z"/>
			</g>
			<g>
				<ellipse fill="#8C87CF" cx="581.451" cy="495.05" rx="2.132" ry="2.737"/>
			</g>
			<g>
				<ellipse fill="#8C87CF" cx="582.363" cy="466.472" rx="2.134" ry="2.737"/>
			</g>
			<g>
				<path fill="#8C87CF" d="M545.427,416.018c0.186-0.107,0.358-0.353,0.334-0.578c-0.056-0.502-0.174-0.975-0.315-1.458
					c-0.132-0.45-0.17-0.97-0.415-1.372c-0.003,0.002-0.007,0.005-0.01,0.007c-0.177-0.281-0.632-0.355-0.817-0.004
					c-0.358,0.682-0.012,1.544,0.133,2.251c0.071,0.343,0.004,0.785,0.273,1.052C544.847,416.15,545.146,416.18,545.427,416.018z
					 M544.215,412.877c-0.005,0.022-0.003,0.042-0.005,0.063c-0.003-0.009-0.007-0.018-0.011-0.026
					C544.204,412.902,544.209,412.89,544.215,412.877z"/>
			</g>
			<g>
				<path fill="#8C87CF" d="M543.907,416.218c0.051-0.445-0.325-0.835-0.566-1.177c-0.226-0.318-0.399-0.701-0.656-0.99
					c-0.232-0.261-0.716-0.125-0.79,0.211c-0.098,0.447,0.119,0.902,0.321,1.293c0.209,0.409,0.386,0.929,0.779,1.184
					C543.414,417.013,543.858,416.639,543.907,416.218z"/>
			</g>
			<g>
				<path fill="#8C87CF" d="M602.156,503.982c-2.271-2.8-4.382-5.793-6.74-8.525c0.02-5.513,0.04-11.025,0.06-16.538
					c0.014-3.743,0.028-7.486,0.041-11.229c0.011-2.734-0.8-5.227-2.58-7.309c-1.671-1.953-4.287-2.086-6.782-2.033
					c0.168-0.477,0.272-0.98,0.295-1.512c0.128-3.051-1.746-5.807-4.328-6.974c0.079-3.248-0.102-6.709-1.274-9.743
					c4.012-1.267,7.742-3.14,10.797-6.561c0.64-0.717,0.528-1.585,0.08-2.19c0.343-7.384,0.021-16.719-5.312-22.222
					c0.412-10.854-2.101-22.801-7.31-32.313c-0.579-1.057-1.729-1.005-2.465-0.426c-0.021,0.013-0.04,0.019-0.061,0.033
					c-6.987,4.69-14.197,11.215-18.361,18.706c-4.807-1.516-9.858-2.047-14.916-1.647c-2.569-3.25-5.066-6.546-8.204-9.28
					c-3.837-3.344-8.479-5.466-13.277-7.037c-1.091-0.357-1.846,0.376-2.023,1.249c-0.166,0.177-0.302,0.399-0.388,0.68
					c-3.114,10.185-3.269,20.905-0.208,31.122c0.055,0.181,0.134,0.332,0.225,0.469c-3.151,7.19-3.43,15.33-1.189,22.96
					c0.17,0.58,0.548,0.923,0.987,1.081c1.991,2.629,4.465,3.918,7.877,4.977c1.147,0.356,2.243,0.792,3.307,1.281
					c-1.49,3.135-2.267,6.666-2.034,10.127c-7.912,3.021-15.504,6.882-21.432,13.06c-5.467,5.698-8.999,12.984-11.029,20.553
					c-3.502,13.055-2.401,26.332,2.495,38.456c-2.628,4.79-4.271,9.973-3.315,15.473c0.791,4.551,3.968,8.448,7.598,11.118
					c9.465,6.96,22.786,9.092,34.216,7.708c3.39-0.411,6.675-1.166,9.786-2.266c0.108,0.071,0.223,0.135,0.352,0.188
					c4.559,1.848,9.895,0.678,14.666,1.135c4.568,0.438,10.628,0.809,14.518-2.191c0.686-0.528,1.133-1.133,1.405-1.773
					c3.226,0.067,6.604,0.355,9.764-0.097c5.449-0.781,7.831-5.345,7.853-10.378c0.032-7.326,0.064-14.654,0.097-21.981
					c1.393-0.057,2.807-0.415,3.835-0.885c2.891-1.32,4.423-4.393,5.276-7.314C605.322,508.962,603.982,506.233,602.156,503.982z
					 M582.614,454.388c1.543,2.03-0.271,4.068-1.719,5.334c-3.236,2.829-5.695,6.129-7.752,9.902
					c-3.502,6.425-5.924,13.881-5.108,21.235c0.028,0.259,0.058,0.519,0.088,0.777c-1.184-2.721-2.08-5.715-2.367-8.568
					c-0.677-9.884,2.354-21.745,9.976-28.599C577.795,452.616,580.678,451.838,582.614,454.388z M565.231,440.349
					c-1.025,0.209-2.042,0.421-3.054,0.646c0.284-0.565,0.556-1.146,0.796-1.735c0.893,0.067,1.738,0.265,2.646,0.47
					c0.519,0.117,0.812-0.464,0.49-0.849c-0.597-0.71-1.563-1.015-2.626-1.097c0.174-0.612,0.293-1.226,0.334-1.832
					c0.017-0.003,0.034-0.007,0.052-0.011c0.945-0.181,1.905-0.23,2.867-0.273c-0.043,1.46,0.332,2.864,1.238,4.005
					C567.052,439.879,566.135,440.1,565.231,440.349z M531.128,437.591c-0.623-0.254-1.253-0.479-1.886-0.696
					c-0.034-0.375-0.071-0.761-0.095-1.148c0.51,0.087,1.021,0.189,1.53,0.257c0.072,0.029,0.151,0.038,0.23,0.031
					c0.003,0,0.005,0,0.007,0.001c0,0,0-0.001-0.001-0.002c0.381-0.037,0.771-0.445,0.494-0.851
					c-0.398-0.584-1.152-0.566-1.802-0.593c-0.153-0.006-0.308-0.015-0.463-0.025c0.031-0.451,0.112-0.888,0.273-1.293
					c0.754,0.215,1.493,0.471,2.158,0.816c0.525,0.476,1.587-0.466,0.735-1.073c-0.568-0.405-1.305-0.691-2.069-0.913
					c0.35-0.307,0.766-0.538,1.209-0.721c0.273,0.197,0.54,0.403,0.797,0.624c0.32,0.559,1.564-0.046,0.903-0.756
					c-0.095-0.102-0.197-0.194-0.296-0.29c0.387-0.08,0.77-0.138,1.129-0.183c2.53-0.32,5.173,0.094,7.64,0.641
					c0.089,0.02,0.173,0.026,0.255,0.025c0.494,0.889,1.373,2.104,1.629,2.54c0.295,0.501,0.484,0.534,1.416,0.575
					c0.514,0.023,0.994,0.066,1.246-0.25c0.214-0.267,0.969-1.355,1.532-2.297c0.12,0.011,0.249,0.002,0.389-0.04
					c3.561-1.056,8.126-1.352,11.548,0.323c-0.833,0.552-1.549,1.205-1.377,1.822c0.058,0.205,0.249,0.364,0.467,0.361
					c0.396-0.006,0.648-0.24,0.964-0.467c0.396-0.286,0.821-0.541,1.253-0.784c0.451,0.485,0.705,1.039,0.812,1.635
					c-1.054,0.208-2.146,0.517-2.798,1.135c-0.047,0.045-0.071,0.127-0.051,0.19c0.019,0.053,0.036,0.105,0.055,0.158
					c0.069,0.203,0.24,0.366,0.467,0.361c0.779-0.016,1.552-0.146,2.32-0.306c-0.074,0.48-0.206,0.971-0.377,1.461
					c-0.845,0.109-1.641,0.289-2.254,0.454c-0.475,0.128-0.488,0.84-0.003,0.964c0.548,0.14,1.09,0.123,1.637,0.074
					c-0.383,0.807-0.811,1.578-1.188,2.261c-1.838,0.469-3.656,1.012-5.461,1.697c-4.451,1.689-7.952,2.541-12.391,0.224
					C538.105,441.651,534.927,439.142,531.128,437.591z M530.438,435.202c0.001,0,0.003-0.001,0.005-0.003
					c0,0.002-0.002,0.004-0.003,0.006C530.439,435.204,530.438,435.203,530.438,435.202z M527.927,431.558
					c-0.438-0.094-0.913-0.214-1.396-0.308c0.161-0.8,0.229-1.62,0.217-2.37c0.165,0.063,0.328,0.13,0.49,0.204
					c0.75,0.342,1.499,0.693,2.227,1.078c-0.583,0.409-1.023,0.891-1.344,1.437C528.056,431.586,527.989,431.572,527.927,431.558z
					 M523.796,431.422c-0.198,0.104-0.177,0.391,0.002,0.499c0.356,0.215,0.775,0.337,1.216,0.421
					c-0.438,0.812-1.063,1.475-1.862,1.824c-0.759-0.704-1.384-1.563-1.97-2.555c-0.689-2.687-1.041-5.412-1.032-8.115
					c2.37-0.302,4.429,1.504,5.258,3.701c-0.728-0.174-1.469-0.256-2.216-0.164c-0.279,0.035-0.489,0.444-0.163,0.598
					c0.867,0.408,1.795,0.634,2.716,0.912c0.093,0.811,0.011,1.717-0.237,2.573C524.908,431.083,524.32,431.146,523.796,431.422z
					 M569.607,439.325c-0.834-1.12-1.406-2.294-1.462-3.731c0.511-0.036,1.021-0.087,1.526-0.174
					c0.664-0.114,0.449-1.052-0.142-1.105c-0.426-0.038-0.857-0.063-1.291-0.08c0.438-2.515,2.314-4.529,4.529-5.646
					c2.706-1.366,6.077-0.427,7.791,2.015c1.558,2.22,0.833,4.293-0.324,6.226C576.841,437.979,573.191,438.588,569.607,439.325z
					 M522.393,380.948c4.126,1.49,7.95,3.496,11.236,6.478c2.163,1.963,3.998,4.256,5.797,6.561
					c-0.199,0.035-0.399,0.063-0.599,0.101c-2.139,0.401-1.23,3.655,0.898,3.256c8.04-1.508,16.361-0.349,23.549,3.601
					c1.909,1.05,3.613-1.867,1.705-2.916c-1.16-0.637-2.345-1.199-3.549-1.704c3.685-6.322,9.667-11.937,15.621-16.123
					c3.993,8.028,6.014,17.649,6.023,26.658c-1.422,0.006-2.356,2.202-0.83,3.182c0.398,0.256,0.771,0.537,1.122,0.835
					c0.078,0.09,0.166,0.168,0.264,0.236c5.287,4.819,5.037,14.456,4.678,21.034c-1.784,1.718-3.802,2.946-5.962,3.875
					c0.619-1.837,0.604-3.843-0.301-5.726c-1.56-3.243-5.712-4.336-8.933-3.368c-3.075,0.924-5.538,4.076-6.201,7.29
					c-1.064,0.017-2.128,0.107-3.158,0.289c-0.134-0.794-0.448-1.56-0.994-2.276c0.651-0.37,1.287-0.772,1.926-1.163
					c1.267-0.774,2.792-1.062,4.177-1.55c0.707-0.249,0.435-1.244-0.299-1.116c-2.643,0.461-4.655,1.311-6.909,2.724
					c0,0-0.001,0-0.001,0.001c-3.441-2.746-9.509-2.347-13.556-1.261c-0.229-0.322-0.588-0.577-1.02-0.596
					c-0.752-0.034-1.49,0.345-2.073,0.319c-0.583-0.026-0.743-0.361-1.941-0.327c-0.448,0.013-0.77,0.068-0.999,0.18
					c-3.516-0.772-7.3-1.222-10.794-0.142c-0.172,0.053-0.327,0.116-0.485,0.176c-0.75-0.416-1.538-0.775-2.315-1.129
					c-0.592-0.269-1.207-0.544-1.836-0.776c-0.025-0.149-0.053-0.293-0.086-0.427c-0.47-1.923-3.971-5.46-6.369-4.824
					c0.118-2.809,0.625-5.582,1.553-8.249c-0.01,0.116,0.021,0.231,0.12,0.307c0.19,0.146,0.372,0.157,0.579,0.227
					c0.267,0.159,0.567,0.275,0.833,0.437c0.23,0.14,0.527,0.129,0.758-0.002c0.174-0.099,0.308-0.247,0.345-0.45
					c0.063-0.354-0.045-0.648-0.35-0.851c-0.334-0.223-0.765-0.357-1.167-0.326c-0.292,0.023-0.802,0.146-1,0.375
					c-0.021,0.024-0.035,0.056-0.052,0.085c0.725-2.034,1.691-4.004,2.913-5.88c1.192-1.83-1.732-3.521-2.915-1.704
					c-0.036,0.055-0.066,0.112-0.102,0.167C519.698,398,519.989,389.345,522.393,380.948z M525.846,435.766
					c-0.548-0.188-1.038-0.419-1.485-0.688c0.848-0.538,1.442-1.479,1.826-2.563c0.334,0.045,0.662,0.095,0.966,0.175
					c0.15,0.039,0.304,0.077,0.458,0.115c-0.157,0.53-0.255,1.092-0.308,1.682c-0.417,0.005-0.829,0.036-1.228,0.119
					c-0.418,0.087-0.422,0.752-0.002,0.84c0.385,0.081,0.779,0.11,1.175,0.131c-0.004,0.216-0.006,0.434-0.004,0.654
					C526.776,436.078,526.311,435.925,525.846,435.766z M540.007,446.45c3.815,2.165,7.647,2.509,11.81,1.265
					c2.107-0.63,4.118-1.556,6.215-2.224c2.649-0.845,5.377-1.332,8.098-1.886c3.771-1.039,7.694-1.664,11.471-2.586
					c0.008,0.019,0.01,0.037,0.019,0.056c1.108,2.44,1.211,5.482,1.145,8.238c-0.662,0.071-1.334,0.245-2.001,0.545
					c-3.678,1.653-6.375,4.958-8.447,8.527c-2.262-0.015-4.523-0.03-6.785-0.044c-0.147-0.466-0.327-0.933-0.562-1.407
					c-0.795-1.604-2.14-2.953-3.585-3.967c-2.767-1.942-7.768-2.18-10.859-1.12c-3.143,1.077-5.413,3.829-7.094,6.594
					c-0.016,0-0.032,0-0.047,0c-0.342-3.484,0.336-7.771-3.756-8.996c-1.488-0.445-2.788-0.479-3.892-0.18
					c0.106-2.322,0.681-4.611,1.671-6.72C535.62,443.788,537.759,445.174,540.007,446.45z M558.941,466.988
					c-0.181,0.347-0.385,0.682-0.597,1.013c-0.099-0.2-0.192-0.407-0.273-0.633c-0.201-0.566-1.106-0.508-1.088,0.147
					c0.035,1.25-0.54,2.358-0.949,3.531c-0.427,1.224-1.412,1.495-2.616,1.488c-1.339-0.007-2.736-0.514-3.693-1.438
					c-0.811-0.783-0.601-2.046-1.315-2.859c-0.083-0.095-0.23-0.078-0.316,0c-0.198,0.18-0.347,0.395-0.458,0.629
					c-0.928-1.069-1.682-2.141-1.724-3.892c-0.061-2.504,1.477-4.509,1.657-6.939c0.034-0.47-0.712-0.689-0.909-0.247
					c-0.1,0.222-0.2,0.439-0.301,0.653c-0.951,0-1.902,0-2.854,0c0.852-1.118,1.838-2.109,3.066-2.895
					c2.397-1.534,5.603-0.903,8.153-0.127c2.982,0.907,3.884,4.327,4.312,6.975C559.317,464.127,559.797,465.338,558.941,466.988z
					 M544.816,461.664c-0.633,1.451-1.1,2.943-1.139,4.828c-0.009,0.475,0.041,0.949,0.143,1.415c-1.396-2-2.647-4.086-3.57-6.243
					C541.772,461.664,543.294,461.664,544.816,461.664z M550.346,536.501c-5.083,4.736-11.522,6.624-18.247,6.881
					c4.246-3.661,8.233-7.647,11.932-11.851c1.919-2.18,4.506-4.927,6.065-7.893C550.657,527.87,550.752,532.177,550.346,536.501z
					 M552.16,515.62c1.226,0.379,2.394,1.098,3.345,1.842c1.396,1.091,1.948,2.603,2.799,3.99
					c-0.377,3.809-1.735,7.181-3.825,10.232C554.551,526.286,553.688,520.861,552.16,515.62z M556.918,514.743
					c-1.396-0.999-3.728-2.192-5.676-2.023c-1.536-4.501-3.536-8.834-5.821-12.859c-2.162-3.81-4.808-7.702-7.911-11.18
					c0-0.017,0.005-0.031,0.005-0.049c0.037-2.754,0.073-5.508,0.11-8.262c5.422,6.565,11.763,12.374,16.045,19.834
					c2.776,4.835,4.265,10.199,4.648,15.703C557.869,515.476,557.395,515.084,556.918,514.743z M534.3,476.471
					c-0.04,2.941-0.078,5.883-0.117,8.825c-1.435-1.319-2.95-2.534-4.543-3.607c-0.004-2.857-0.008-5.715-0.013-8.572
					c-0.003-1.674-0.26-3.818-0.176-5.846c0.659,1.587,1.428,3.133,2.253,4.625c0.807,1.458,1.697,2.846,2.64,4.192
					C534.317,476.208,534.302,476.335,534.3,476.471z M522.929,553.94c-7.253-1.149-15.009-3.543-20.428-8.723
					c-5.346-5.109-4.995-11.877-2.312-18.009c1.296,2.677,2.775,5.289,4.44,7.817c1.192,1.81,4.117,0.12,2.916-1.705
					c-4.583-6.96-7.97-14.473-9.533-22.686c-1.466-7.701-0.927-15.898,0.789-23.512c1.603-7.115,4.746-13.86,9.499-19.415
					c5.085-5.944,12.01-9.732,19.185-12.626c-0.018,0.124-0.041,0.244-0.055,0.371c-0.225,1.982-0.117,3.936,0.224,5.849
					c-2.09,3.014-1.409,7.314-1.404,10.798c0.004,2.532,0.007,5.064,0.011,7.596c-2.192-1.113-4.512-1.953-6.958-2.432
					c-1.488-0.291-2.054,1.759-0.624,2.264c10.737,3.792,18.243,12.418,23.828,22.036c3.264,5.62,5.582,11.657,6.881,17.907
					c-0.198,1.779-1.362,3.467-2.312,4.912c-1.707,2.598-3.776,4.963-5.858,7.263c-3.79,4.188-7.899,8.138-12.252,11.74
					c-6.021-0.193-12.136-1.518-17.596-3.133c-2.094-0.619-2.981,2.64-0.898,3.256c11.802,3.491,25.797,5.479,37.186-0.601
					c4.631-2.472,8.776-7.32,11.29-11.871c2.687-4.864,3.113-10.498,2.704-15.936c-0.991-13.207-8.745-22.851-17.52-32.074
					c-3.841-4.038-7.178-8.62-9.874-13.494c-1.439-2.603-2.562-5.353-3.204-8.26c-0.482-2.185-1.017-6.503,0.588-8.37
					c0.682-0.792,2.369-0.518,3.167-0.153c0.992,0.454,1.063,1.948,1.14,2.865c0.194,2.344,0.065,4.586,0.982,6.803
					c2.075,5.013,5.662,9.489,9.032,13.687c3.26,4.058,6.97,7.721,10.242,11.776c3.945,4.888,7.209,9.846,9.57,15.673
					c2.363,5.836,3.409,11.523,2.539,17.794c-0.083,0.596-0.176,1.189-0.273,1.781c-0.166,0.647-0.282,1.302-0.354,1.965
					c-1.061,5.363-2.849,10.512-5.903,15.125C553.634,552.525,536.713,556.127,522.929,553.94z M571.455,523.322
					c0.224-0.499,0.45-0.992,0.682-1.47c1.219-2.519,3.404-5.197,6.388-5.41c2.967-0.213,5.866,2.132,7.437,4.436
					c1.76,2.58,2.312,6.083,2.604,9.117c0.563,5.853-4.342,12.946-10.778,11.884c-5.413-0.895-6.963-5.882-8.143-10.476
					C570.459,528.771,571.05,526.05,571.455,523.322z M569.576,553.078c-3.891,0.35-7.738-0.422-11.609-0.616
					c-1.753-0.089-3.504,0.124-5.259,0.076c3.504-1.933,6.665-4.394,9.351-7.394c1.179,0.369,2.287,0.571,3.614,0.498
					c2.423-0.133,4.565-0.522,6.239,1.689c1.036,1.368,2.57,1.711,2.651,3.645C574.635,552.66,570.604,552.986,569.576,553.078z
					 M586.247,549.205c-2.861,0.135-5.755,0.03-8.626,0.002c-0.476-1.313-1.408-2.54-2.504-3.403
					c-0.838-0.661-1.189-1.767-2.12-2.326c-1.015-0.609-2.032-1.078-3.222-1.224c-1.392-0.171-2.713-0.051-4.103,0.093
					c-0.473,0.048-0.943,0.06-1.412,0.062c1.282-1.771,2.42-3.692,3.385-5.772c0.05-0.106,0.096-0.216,0.144-0.322
					c1.397,4.62,5.361,8.545,10.315,8.902c4.005,0.289,7.523-1.611,10.147-4.541c2.796-3.121,3.058-6.686,3.108-10.68
					c0.098-7.625-4.302-16.573-12.837-16.93c-2.522-0.105-4.72,1.305-6.454,3.108c-0.046-5.273-1.688-10.286-3.713-15.155
					c-4.277-10.296-12.139-17.883-19.17-26.28c-0.576-0.688-1.165-1.394-1.754-2.115c0.168,0.077,0.346,0.113,0.525,0.115
					c0.027,0.059,0.054,0.119,0.08,0.174c0.867,1.782,3.57,2.636,5.38,2.787c1.495,0.125,3.085-0.181,4.236-1.129
					c-0.059,0.25-0.1,0.509-0.1,0.783c0,1.511,0.954,2.737,2.133,2.737c1.178,0,2.133-1.226,2.133-2.737
					c0-1.512-0.955-2.737-2.133-2.737c-0.26,0-0.506,0.068-0.736,0.177c0.054-0.127,0.101-0.254,0.141-0.381
					c0.336-0.11,0.647-0.336,0.881-0.724c0.807-1.344,1.788-2.597,2.392-4.052c0.769-1.848,0.508-3.417,0.061-5.321
					c-0.047-0.201-0.089-0.398-0.131-0.595c1.42,0.009,2.839,0.019,4.258,0.028c-0.267,0.561-0.525,1.12-0.77,1.667
					c-2.745,6.167-3.863,12.929-3.403,19.652c0.451,4.483,2.041,8.968,4.121,12.95c0.574,1.1,1.44,2.648,2.776,2.923
					c1.14,0.234,1.82-0.358,2.194-1.194c1.028-0.197,1.818-1.323,1.818-2.696c0-1.237-0.644-2.271-1.523-2.609
					c-0.256-2.722-0.769-5.423-0.286-8.22c0.99-5.745,3.394-11.321,6.54-16.2c1.462-2.266,3.221-4.169,5.263-5.911
					c0.127-0.108,0.253-0.22,0.378-0.333c3.386,0.021,6.707-0.694,8.093,3.13c0.467,1.289,0.387,2.68,0.383,4.027
					c-0.016,4.147-0.031,8.294-0.046,12.441c-0.028,7.758-0.057,15.516-0.085,23.274c-2.745,1.08-5.246,3.661-5.564,6.098
					c-0.283,2.176,0.135,5.107,2.045,6.502c0.818,0.596,1.709,0.853,2.619,0.894c-0.039,0.293,0.043,0.602,0.287,0.837
					c0.174,0.168,0.371,0.309,0.578,0.437c-0.031,6.935-0.061,13.871-0.091,20.807C591.861,544.273,591.606,548.955,586.247,549.205
					z M599.931,515.216c-1.07,1.693-2.952,2.041-4.85,2.073c-0.004-0.006-0.006-0.011-0.01-0.016
					c0.277-0.115,0.55-0.234,0.813-0.355c0.348-0.16,0.188-0.785-0.199-0.738c-1.577,0.194-3.74,0.243-5.217-0.398
					c-1.668-0.725-1.861-3.157-1.624-4.708c0.296-1.93,2.167-3.167,3.862-3.787c1.66-0.605,3.196-0.068,4.835-0.398
					c0.618-0.125,0.72-0.911,0.35-1.323c-0.706-0.786-1.572-1.214-2.508-1.368c0.007-1.748,0.013-3.496,0.019-5.244
					c0.308,0.493,0.628,0.977,0.926,1.456c1.378,2.216,3.144,4.103,4.583,6.263C602.821,509.534,601.591,512.59,599.931,515.216z"/>
			</g>
			<g>
				<path fill="#8C87CF" d="M577.03,539.916c-0.391,0-0.781-0.151-1.076-0.453c-6.04-6.171-4.09-15.37-0.87-19.646
					c0.5-0.665,1.445-0.798,2.109-0.297c0.665,0.5,0.798,1.445,0.297,2.109c-1.416,1.88-2.356,4.715-2.454,7.398
					c-0.083,2.282,0.382,5.58,3.07,8.327c0.583,0.595,0.572,1.549-0.022,2.131C577.791,539.772,577.41,539.916,577.03,539.916z"/>
			</g>
		</g>
		<path fill="#8C87CF" d="M437.756,603.703"/>
	</g>
</g>
</svg>
