<?xml version="1.0" encoding="utf-8"?>
<!-- Generator: Adobe Illustrator 16.0.4, SVG Export Plug-In . SVG Version: 6.00 Build 0)  -->
<!DOCTYPE svg PUBLIC "-//W3C//DTD SVG 1.1//EN" "http://www.w3.org/Graphics/SVG/1.1/DTD/svg11.dtd">
<svg version="1.1" id="Layer_1" xmlns="http://www.w3.org/2000/svg" xmlns:xlink="http://www.w3.org/1999/xlink" x="0px" y="0px"
	 width="500px" height="850px" viewBox="0 0 500 850" enable-background="new 0 0 500 850" xml:space="preserve">
<g>
	<g>
		<g>
			<path fill="#F28980" stroke="#FFFFFF" stroke-width="0.821" stroke-linejoin="round" stroke-miterlimit="10" d="M244.46,453.914"
				/>
		</g>
		<g>
			<line fill="none" x1="140.013" y1="567.04" x2="161.009" y2="561.219"/>
			
				<rect x="149.83" y="553.246" transform="matrix(0.2678 0.9635 -0.9635 0.2678 653.7067 268.0589)" fill="#FFFFFF" width="1.303" height="21.79"/>
		</g>
		<g>
			<path fill="#F28980" stroke="#FFFFFF" stroke-width="0.821" stroke-linejoin="round" stroke-miterlimit="10" d="M324.073,328.591
				"/>
		</g>
		<g>
			<path fill="#F28980" stroke="#FFFFFF" stroke-width="0.821" stroke-linejoin="round" stroke-miterlimit="10" d="M310.895,453.41"
				/>
		</g>
		<g>
			<polygon fill="#F28980" points="161.009,561.219 169.789,476.938 169.851,476.923 170.59,470.285 148.744,470.285 
				162.136,342.964 157.388,342.964 135.449,349.046 122.059,476.369 121.401,482.724 143.187,482.724 135.36,567.04 
				158.925,615.35 180.805,609.045 181.481,602.689 			"/>
			<path fill="#FFFFFF" d="M158.925,616.005c-0.244,0-0.475-0.142-0.587-0.368l-23.565-48.31c-0.051-0.105-0.074-0.229-0.063-0.349
				l7.759-83.604H121.4c-0.185,0-0.363-0.076-0.486-0.216c-0.123-0.137-0.183-0.317-0.164-0.504l0.659-6.352l13.392-127.326
				c0.028-0.267,0.218-0.49,0.476-0.56l21.938-6.083c0.057-0.015,0.115-0.022,0.174-0.022h4.748c0.185,0,0.36,0.077,0.485,0.216
				c0.123,0.135,0.183,0.32,0.163,0.504l-13.316,126.599h21.122c0.185,0,0.362,0.081,0.487,0.216
				c0.124,0.143,0.183,0.328,0.161,0.511l-0.738,6.638c-0.01,0.095-0.042,0.181-0.086,0.256l-8.736,83.848l20.389,41.307
				c0.054,0.109,0.076,0.229,0.063,0.355l-0.675,6.355c-0.028,0.262-0.213,0.481-0.469,0.555l-21.88,6.305
				C159.045,615.994,158.986,616.005,158.925,616.005z M136.026,566.919l23.246,47.65l20.932-6.028l0.609-5.73l-20.389-41.305
				c-0.054-0.108-0.077-0.236-0.064-0.353l8.781-84.281c0.01-0.101,0.042-0.188,0.089-0.267l0.631-5.672h-21.117
				c-0.187,0-0.363-0.073-0.486-0.211c-0.123-0.141-0.184-0.32-0.164-0.508l13.315-126.598h-3.933l-21.424,5.938l-13.345,126.876
				l-0.585,5.638h21.063c0.184,0,0.359,0.073,0.482,0.211c0.124,0.136,0.185,0.315,0.167,0.498L136.026,566.919z"/>
		</g>
		<g>
			<polygon fill="#F28980" points="157.25,336.607 136.108,342.691 135.449,349.046 159.99,349.046 181.045,343.246 
				181.783,336.607 			"/>
			<path fill="#FFFFFF" d="M159.99,349.698h-24.541c-0.184,0-0.36-0.077-0.484-0.215c-0.125-0.137-0.183-0.32-0.165-0.503
				l0.659-6.357c0.027-0.265,0.212-0.486,0.468-0.56l21.144-6.082c0.058-0.018,0.12-0.026,0.179-0.026h24.534
				c0.185,0,0.363,0.079,0.486,0.219c0.124,0.139,0.183,0.322,0.163,0.507l-0.739,6.638c-0.03,0.266-0.219,0.486-0.476,0.558
				l-21.052,5.8C160.109,349.691,160.05,349.698,159.99,349.698z M136.174,348.394h23.728l20.541-5.662l0.61-5.473h-23.71
				l-20.631,5.938L136.174,348.394z"/>
		</g>
		<g>
			<polygon fill="#F28980" points="140.013,567.04 149.466,476.369 126.811,476.369 140.197,349.046 159.99,349.046 
				181.045,343.246 181.783,336.607 160.659,342.691 136.108,342.691 135.449,349.046 122.061,476.369 122.059,476.369 
				121.401,482.724 143.187,482.724 135.36,567.04 158.925,615.35 180.805,609.045 181.481,602.689 160.358,608.773 			"/>
			<path fill="#FFFFFF" d="M158.925,616.005c-0.244,0-0.475-0.142-0.587-0.368l-23.565-48.31c-0.051-0.105-0.074-0.229-0.063-0.349
				l7.759-83.604H121.4c-0.185,0-0.363-0.076-0.486-0.216c-0.123-0.137-0.183-0.317-0.164-0.504l0.659-6.352
				c0.001-0.023,0.003-0.046,0.009-0.061l13.383-127.265l0.659-6.355c0.035-0.332,0.314-0.585,0.648-0.585h24.458l21.037-6.057
				c0.21-0.061,0.436-0.011,0.601,0.128c0.166,0.141,0.251,0.355,0.229,0.571l-0.739,6.638c-0.03,0.266-0.219,0.486-0.476,0.558
				l-21.052,5.8c-0.056,0.015-0.115,0.022-0.174,0.022h-19.206l-13.25,126.016h21.931c0.185,0,0.361,0.075,0.485,0.217
				c0.123,0.138,0.184,0.317,0.165,0.503l-9.433,90.491l20.021,41.067l20.597-5.934c0.209-0.057,0.434-0.011,0.601,0.133
				c0.166,0.135,0.253,0.352,0.229,0.566l-0.675,6.355c-0.028,0.262-0.213,0.481-0.469,0.555l-21.88,6.305
				C159.045,615.994,158.986,616.005,158.925,616.005z M136.026,566.919l23.246,47.65l20.932-6.028l0.524-4.955l-20.19,5.812
				c-0.304,0.091-0.628-0.058-0.767-0.34l-20.345-41.73c-0.054-0.111-0.074-0.231-0.063-0.354l9.379-89.956h-21.933
				c-0.187,0-0.362-0.08-0.486-0.217c-0.123-0.135-0.182-0.315-0.163-0.503l13.388-127.32c0.034-0.332,0.314-0.584,0.648-0.584
				h19.706l20.541-5.662l0.583-5.229l-20.188,5.814c-0.058,0.017-0.118,0.024-0.18,0.024h-23.962l-0.598,5.771l-13.39,127.321
				c-0.001,0.021-0.005,0.04-0.009,0.058l-0.578,5.58h21.063c0.184,0,0.359,0.073,0.482,0.211c0.124,0.136,0.185,0.315,0.167,0.498
				L136.026,566.919z"/>
		</g>
		<g>
			
				<rect x="216.324" y="342.673" transform="matrix(0.9945 0.1051 -0.1051 0.9945 37.5645 -20.8946)" fill="#FFFFFF" width="1.305" height="6.39"/>
		</g>
		<g>
			<line fill="none" x1="149.466" y1="476.369" x2="170.59" y2="470.285"/>
			
				<rect x="159.389" y="462.332" transform="matrix(0.2769 0.9609 -0.9609 0.2769 570.5416 188.4777)" fill="#FFFFFF" width="1.305" height="21.98"/>
		</g>
		<g>
			
				<rect x="159.673" y="342.673" transform="matrix(0.9945 0.1051 -0.1051 0.9945 37.2506 -14.9387)" fill="#FFFFFF" width="1.305" height="6.39"/>
		</g>
		<g>
			<polygon fill="#F28980" points="234.524,627.582 213.381,633.66 211.345,640.016 251.439,640.016 272.436,634.194 
				273.136,627.582 			"/>
			<path fill="#FFFFFF" d="M251.439,640.67h-40.094c-0.208,0-0.403-0.101-0.526-0.267c-0.123-0.173-0.159-0.39-0.094-0.589
				l2.035-6.355c0.066-0.206,0.232-0.363,0.442-0.423l21.143-6.084c0.058-0.021,0.118-0.025,0.18-0.025h38.61
				c0.182,0,0.36,0.081,0.481,0.217c0.125,0.138,0.187,0.322,0.166,0.506l-0.7,6.609c-0.025,0.27-0.211,0.489-0.471,0.562
				l-20.998,5.826C251.559,640.66,251.501,640.67,251.439,640.67z M212.24,639.366h39.111l20.482-5.683l0.571-5.452h-37.792
				l-20.718,5.963L212.24,639.366z"/>
		</g>
		<g>
			<polygon fill="#F28980" points="246.072,218.364 229.961,222.834 216.647,349.046 237.639,343.221 250.82,218.364 			"/>
			<path fill="#FFFFFF" d="M216.647,349.698c-0.154,0-0.304-0.054-0.423-0.155c-0.164-0.138-0.25-0.353-0.227-0.566l13.315-126.21
				c0.028-0.267,0.216-0.491,0.474-0.562l16.109-4.469c0.058-0.017,0.115-0.025,0.177-0.025h4.749c0.188,0,0.359,0.078,0.484,0.216
				c0.125,0.136,0.187,0.322,0.166,0.505L238.287,343.29c-0.027,0.266-0.216,0.489-0.475,0.559l-20.992,5.825
				C216.764,349.689,216.705,349.698,216.647,349.698z M230.564,223.344l-13.167,124.817l19.64-5.45l13.058-123.694h-3.932
				L230.564,223.344z"/>
		</g>
		<g>
			<polygon fill="#F28980" points="173.303,349.046 194.3,343.221 199.048,343.221 190.261,427.541 169.265,433.368 164.52,433.368 
							"/>
			<path fill="#FFFFFF" d="M169.265,434.022h-4.746c-0.186,0-0.362-0.081-0.485-0.219c-0.123-0.141-0.184-0.32-0.165-0.503
				l8.784-84.324c0.027-0.266,0.218-0.49,0.476-0.56l20.997-5.825c0.055-0.015,0.114-0.025,0.173-0.025h4.748
				c0.186,0,0.36,0.079,0.483,0.216c0.125,0.138,0.184,0.321,0.165,0.505l-8.785,84.322c-0.028,0.267-0.215,0.487-0.473,0.56
				l-20.998,5.827C169.383,434.012,169.324,434.022,169.265,434.022z M165.243,432.713h3.936l20.481-5.68l8.664-83.159h-3.936
				l-20.482,5.682L165.243,432.713z"/>
		</g>
		<g>
			<g>
				<polygon fill="#F28980" points="217.959,336.607 195.109,336.607 173.966,342.691 173.308,349.046 216.642,349.046 
					216.647,349.046 				"/>
				<path fill="#FFFFFF" d="M216.642,349.698h-43.334c-0.185,0-0.361-0.077-0.485-0.215c-0.123-0.137-0.184-0.32-0.165-0.503
					l0.66-6.357c0.026-0.265,0.213-0.486,0.468-0.56l21.142-6.082c0.058-0.018,0.118-0.026,0.18-0.026h22.85
					c0.184,0,0.361,0.079,0.485,0.218c0.125,0.137,0.184,0.321,0.165,0.505l-1.313,12.438c-0.031,0.291-0.251,0.526-0.541,0.574
					C216.719,349.696,216.678,349.698,216.642,349.698z M174.03,348.394h42.028l1.175-11.135h-22.035l-20.628,5.937L174.03,348.394z
					"/>
			</g>
		</g>
		<g>
			<line fill="none" x1="126.811" y1="476.369" x2="148.744" y2="470.285"/>
			
				<rect x="137.139" y="461.937" transform="matrix(0.2686 0.9633 -0.9633 0.2686 556.7126 213.4715)" fill="#FFFFFF" width="1.302" height="22.765"/>
		</g>
		<g>
			<polyline fill="#F28980" points="326.395,343.226 326.417,343.221 339.594,218.406 339.659,218.388 340.397,211.751 
				246.865,211.751 225.721,217.834 225.065,224.19 225.076,224.19 212.566,342.691 173.966,342.691 173.308,349.046 
				173.303,349.046 164.52,433.368 169.257,433.368 178.061,349.046 216.642,349.046 216.647,349.046 229.819,224.19 
				313.855,224.19 300.671,349.046 			"/>
			<path fill="#FFFFFF" d="M169.257,434.022h-4.737c-0.186,0-0.362-0.081-0.485-0.219c-0.123-0.141-0.184-0.32-0.165-0.503
				l8.784-84.324c0.003-0.025,0.008-0.049,0.012-0.073l0.652-6.283c0.034-0.332,0.315-0.585,0.648-0.585h38.011l12.438-117.799
				c-0.003-0.038-0.003-0.077,0-0.116l0.657-6.356c0.029-0.266,0.214-0.486,0.47-0.562l21.142-6.081
				c0.061-0.018,0.119-0.026,0.182-0.026h93.532c0.186,0,0.364,0.081,0.484,0.219c0.126,0.137,0.182,0.322,0.163,0.505l-0.739,6.639
				c-0.014,0.097-0.043,0.187-0.092,0.267l-13.15,124.564c-0.027,0.271-0.226,0.495-0.486,0.563l-0.174-0.633l-0.638-0.068
				l13.177-124.814c0.01-0.101,0.046-0.192,0.094-0.274l0.629-5.661h-92.71l-20.629,5.937l-0.601,5.798
				c0.003,0.042,0.003,0.081,0,0.12l-12.51,118.501c-0.038,0.333-0.316,0.583-0.649,0.583h-38.01l-0.598,5.771
				c-0.004,0.025-0.006,0.05-0.014,0.076l-8.701,83.524h3.427l8.74-83.735c0.037-0.332,0.316-0.584,0.65-0.584h37.999l13.11-124.272
				c0.036-0.332,0.316-0.585,0.65-0.585h84.037c0.184,0,0.362,0.08,0.485,0.217c0.123,0.138,0.182,0.321,0.16,0.505L301.32,349.116
				l-1.299-0.138l13.106-124.135h-82.725l-13.11,124.272c-0.031,0.291-0.251,0.526-0.541,0.574c-0.035,0.008-0.076,0.01-0.112,0.01
				h-37.995l-8.741,83.732C169.872,433.765,169.591,434.022,169.257,434.022z"/>
		</g>
		<g>
			
				<rect x="251.096" y="633.652" transform="matrix(0.9946 0.1039 -0.1039 0.9946 67.5609 -22.7183)" fill="#FFFFFF" width="1.306" height="6.39"/>
		</g>
		<g>
			<circle fill="#F28980" cx="237.876" cy="313.639" r="50.839"/>
			<path fill="#FFFFFF" d="M237.877,365.129c-28.393,0-51.492-23.1-51.492-51.491c0-28.394,23.099-51.493,51.492-51.493
				c28.393,0,51.491,23.1,51.491,51.493C289.368,342.03,266.27,365.129,237.877,365.129z M237.877,263.451
				c-27.673,0-50.188,22.513-50.188,50.188c0,27.671,22.515,50.186,50.188,50.186c27.67,0,50.188-22.515,50.188-50.186
				C288.064,285.964,265.548,263.451,237.877,263.451z"/>
		</g>
		<g>
			<path fill="none" stroke="#FFFFFF" stroke-width="0.821" stroke-linejoin="round" stroke-miterlimit="10" d="M336.071,223.748"/>
		</g>
		<g>
			<path fill="none" stroke="#FFFFFF" stroke-width="0.821" stroke-linejoin="round" stroke-miterlimit="10" d="M336.071,223.748"/>
		</g>
		<g>
			<polygon fill="#F28980" points="188.599,470.285 167.458,476.369 166.8,482.724 184.888,482.724 184.802,482.745 
				176.068,567.065 180.765,567.065 201.762,561.244 210.547,476.923 211.288,470.285 			"/>
			<path fill="#FFFFFF" d="M180.765,567.721h-4.697c-0.185,0-0.36-0.081-0.485-0.217s-0.184-0.322-0.164-0.504l8.663-83.626H166.8
				c-0.186,0-0.361-0.076-0.485-0.216c-0.125-0.137-0.184-0.317-0.165-0.504l0.657-6.352c0.028-0.267,0.213-0.494,0.47-0.562
				l21.142-6.083c0.058-0.017,0.12-0.025,0.18-0.025h22.688c0.185,0,0.362,0.081,0.486,0.216c0.125,0.143,0.183,0.328,0.163,0.511
				l-0.741,6.638l-8.783,84.313c-0.029,0.269-0.217,0.488-0.476,0.562l-20.997,5.825
				C180.883,567.71,180.824,567.721,180.765,567.721z M176.792,566.416h3.887l20.481-5.681l8.739-83.878l0.66-5.924h-21.866
				l-20.63,5.938l-0.537,5.197h17.363c0.325,0,0.602,0.239,0.646,0.562c0.024,0.167-0.019,0.332-0.112,0.463L176.792,566.416z"/>
		</g>
		<g>
			<path fill="none" stroke="#FFFFFF" stroke-width="0.821" stroke-linejoin="round" stroke-miterlimit="10" d="M263.751,480.02"/>
		</g>
		<g>
			<path fill="#F28980" stroke="#FFFFFF" stroke-width="0.821" stroke-linejoin="round" stroke-miterlimit="10" d="M180.765,567.065
				"/>
		</g>
		<g>
			<polygon fill="#F28980" points="213.399,633.66 211.345,640.016 176.068,567.065 180.765,567.065 201.762,561.244 
				234.524,627.582 			"/>
			<path fill="#FFFFFF" d="M211.345,640.67c-0.248,0-0.477-0.141-0.587-0.372l-35.277-72.95c-0.098-0.201-0.087-0.438,0.034-0.63
				c0.12-0.187,0.327-0.302,0.553-0.302h4.61l20.91-5.801c0.302-0.086,0.621,0.06,0.759,0.337l32.761,66.338
				c0.087,0.176,0.091,0.378,0.011,0.554c-0.077,0.176-0.229,0.31-0.415,0.362l-20.792,5.988l-1.946,6.021
				c-0.082,0.252-0.309,0.436-0.576,0.448C211.376,640.67,211.361,640.67,211.345,640.67z M177.109,567.721l34.116,70.548
				l1.552-4.81c0.067-0.206,0.231-0.363,0.441-0.423l20.375-5.867l-32.176-65.154l-20.479,5.682
				c-0.055,0.016-0.115,0.024-0.174,0.024H177.109L177.109,567.721z"/>
		</g>
		<g>
			<polygon fill="#FFFFFF" points="159.565,615.486 158.287,615.214 159.667,608.637 160.944,608.903 			"/>
		</g>
		<g>
			
				<rect x="318.279" y="217.829" transform="matrix(0.9945 0.1043 -0.1043 0.9945 24.7961 -32.0635)" fill="#FFFFFF" width="1.306" height="6.39"/>
		</g>
		<g>
			<line fill="none" x1="190.162" y1="476.369" x2="211.288" y2="470.285"/>
			
				<rect x="200.085" y="462.331" transform="matrix(0.2762 0.9611 -0.9611 0.2762 600.2024 149.6596)" fill="#FFFFFF" width="1.305" height="21.981"/>
		</g>
		<g>
			
				<rect x="278.224" y="464.816" transform="matrix(0.278 0.9606 -0.9606 0.278 658.4064 75.6559)" fill="#FFFFFF" width="1.303" height="21.984"/>
		</g>
		<g>
			
				<rect x="252.67" y="412.965" transform="matrix(0.2768 0.9609 -0.9609 0.2768 590.5795 63.1656)" fill="#FFFFFF" width="1.307" height="21.984"/>
		</g>
		<g>
			<line fill="none" x1="202.186" y1="427.012" x2="223.317" y2="420.929"/>
			
				<rect x="212.118" y="412.965" transform="matrix(0.2759 0.9612 -0.9612 0.2759 561.5853 102.493)" fill="#FFFFFF" width="1.305" height="21.989"/>
		</g>
		<g>
			
				<rect x="311.466" y="464.826" transform="matrix(0.2753 0.9614 -0.9614 0.2753 683.6172 44.7616)" fill="#FFFFFF" width="1.305" height="21.983"/>
		</g>
		<g>
			
				<rect x="329.176" y="203.812" transform="matrix(0.276 0.9612 -0.9612 0.276 445.2534 -161.5005)" fill="#FFFFFF" width="1.306" height="21.982"/>
		</g>
		<g>
			
				<rect x="285.866" y="412.975" transform="matrix(0.2776 0.9607 -0.9607 0.2776 614.2913 31.0218)" fill="#FFFFFF" width="1.305" height="21.986"/>
		</g>
		<g>
			<polygon fill="#F28980" points="356.691,472.773 334.366,427.652 334.347,427.657 334.352,427.652 313.224,433.735 
				312.369,442.558 312.38,442.553 312.38,442.558 330.759,480.02 321.226,568.199 326.015,568.199 347.069,562.396 			"/>
			<path fill="#FFFFFF" d="M326.015,568.854h-4.789c-0.185,0-0.362-0.079-0.483-0.217c-0.128-0.137-0.187-0.32-0.164-0.504
				l9.513-87.997l-18.26-37.226c-0.085-0.121-0.125-0.269-0.112-0.418l0.855-8.822c0.024-0.267,0.211-0.489,0.468-0.559
				l21.128-6.083c0.146-0.046,0.292-0.036,0.427,0.02c0.15,0.055,0.281,0.166,0.354,0.317l22.327,45.122
				c0.056,0.109,0.078,0.229,0.062,0.355l-9.624,89.629c-0.023,0.269-0.214,0.483-0.474,0.562l-21.055,5.796
				C326.13,568.849,326.072,568.854,326.015,568.854z M321.953,567.549h3.974l20.542-5.66l9.557-88.994l-22.002-44.468
				l-20.188,5.812l-0.796,8.178l18.309,37.316c0.054,0.104,0.074,0.229,0.064,0.353L321.953,567.549z"/>
		</g>
		<g>
			<path fill="#FBFFFA" d="M338.753,177.851c1.067,0-0.188,22.879,4.545,26.175c4.736,3.299,7.569,3.187,7.41,4.431
				c-0.158,1.245-4.646,0.9-8.539,4.43c-4.603,4.173-10.008,26.021-11.025,26.165c-1.146,0.156-1.101-21.661-4.727-26.165
				c-3.626-4.502-7.568-3.184-7.41-4.429s1.879-0.491,8.536-4.432C334.205,200.086,337.69,177.851,338.753,177.851z"/>
			<path fill="#F28980" d="M331.128,239.706c-0.959,0-1.093-0.86-1.679-7.604c-0.555-6.429-1.396-16.143-3.541-18.806
				c-2.142-2.658-4.404-3.153-5.756-3.447c-0.904-0.196-1.927-0.42-1.793-1.473c0.124-0.977,0.831-1.23,2.001-1.647
				c1.249-0.443,3.342-1.188,6.852-3.265c4.412-2.608,7.562-14.428,9.253-20.778c1.255-4.708,1.486-5.489,2.287-5.489
				c0.975,0,1.016,0.982,1.244,6.423c0.259,6.231,0.745,17.831,3.673,19.869c2.307,1.607,4.178,2.396,5.414,2.918
				c1.4,0.59,2.412,1.017,2.27,2.131c-0.117,0.938-1.135,1.242-2.545,1.664c-1.702,0.507-4.033,1.204-6.198,3.167
				c-2.844,2.58-6.151,12.651-8.343,19.316c-2.077,6.324-2.334,6.913-3.033,7.011L331.128,239.706z M319.732,208.405
				c0.179,0.055,0.458,0.117,0.697,0.168c1.423,0.31,4.065,0.889,6.496,3.904c2.391,2.971,3.222,12.532,3.824,19.512
				c0.18,2.027,0.357,4.101,0.539,5.39c0.46-1.218,1.104-3.18,1.735-5.099c2.363-7.202,5.605-17.066,8.707-19.877
				c2.385-2.163,4.981-2.938,6.702-3.452c0.673-0.2,1.509-0.451,1.646-0.632c-0.109-0.122-0.852-0.435-1.503-0.709
				c-1.286-0.543-3.232-1.363-5.651-3.049c-3.46-2.408-3.927-13.528-4.234-20.885c-0.051-1.26-0.106-2.544-0.172-3.552
				c-0.241,0.841-0.517,1.878-0.79,2.898c-1.863,6.988-4.98,18.685-9.852,21.565c-3.617,2.141-5.783,2.911-7.077,3.372
				C320.114,208.202,319.846,208.312,319.732,208.405z"/>
		</g>
		<g>
			<polygon fill="#F28980" points="335.568,478.861 313.224,433.735 312.369,442.558 312.38,442.553 312.38,442.558 330.759,480.02 
				321.226,568.199 326.015,568.199 			"/>
			<path fill="#FFFFFF" d="M326.015,568.854h-4.789c-0.185,0-0.362-0.079-0.483-0.217c-0.128-0.137-0.187-0.32-0.164-0.504
				l9.513-87.997l-18.26-37.226c-0.085-0.121-0.125-0.269-0.112-0.418l0.855-8.822c0.027-0.288,0.247-0.523,0.531-0.58
				c0.281-0.05,0.573,0.096,0.701,0.354l22.343,45.122c0.058,0.113,0.077,0.234,0.063,0.36l-9.551,89.348
				C326.629,568.602,326.35,568.854,326.015,568.854z M321.953,567.549h3.476l9.474-88.57l-21.247-42.905l-0.617,6.345
				l18.309,37.316c0.054,0.104,0.074,0.229,0.064,0.353L321.953,567.549z"/>
		</g>
		<g>
			
				<rect x="345.462" y="464.805" transform="matrix(0.2776 0.9607 -0.9607 0.2776 707.1362 11.2094)" fill="#FFFFFF" width="1.305" height="21.983"/>
		</g>
		<g>
			<polygon fill="#F28980" points="353.621,211.751 332.479,217.834 331.82,224.19 348.205,224.19 335.024,349.046 319.792,382.529 
				318.393,396.012 339.375,390.174 360.744,343.226 360.768,343.221 373.944,218.406 374.006,218.388 374.747,211.751 			"/>
			<path fill="#FFFFFF" d="M318.393,396.664c-0.15,0-0.303-0.053-0.423-0.153c-0.164-0.139-0.25-0.351-0.228-0.565l1.402-13.486
				c0.006-0.07,0.024-0.138,0.054-0.203l15.187-33.384l13.097-124.03h-15.659c-0.185,0-0.362-0.078-0.483-0.215
				c-0.125-0.137-0.187-0.321-0.165-0.503l0.658-6.356c0.026-0.266,0.214-0.486,0.467-0.562l21.144-6.081
				c0.061-0.018,0.121-0.026,0.181-0.026h21.126c0.188,0,0.36,0.081,0.483,0.219c0.126,0.137,0.184,0.322,0.164,0.505l-0.74,6.639
				c-0.01,0.095-0.04,0.181-0.083,0.258L361.417,343.29c-0.013,0.126-0.062,0.242-0.139,0.336l-21.31,46.819
				c-0.081,0.176-0.234,0.307-0.421,0.358l-20.98,5.836C318.511,396.657,318.453,396.664,318.393,396.664z M320.433,382.701
				l-1.292,12.426l19.767-5.499l21.229-46.64l13.16-124.65c0.014-0.097,0.041-0.188,0.092-0.266l0.632-5.669h-20.308l-20.629,5.937
				l-0.542,5.197h15.664c0.188,0,0.36,0.08,0.486,0.217c0.123,0.138,0.181,0.321,0.164,0.505L335.67,349.116
				c-0.007,0.068-0.023,0.136-0.056,0.2L320.433,382.701z"/>
		</g>
		<g>
			<path fill="#FFFFFF" d="M318.987,396.282l-1.188-0.539l21.332-46.872l13.84-131.106l1.297,0.137l-13.85,131.213
				c-0.008,0.068-0.024,0.137-0.053,0.2L318.987,396.282z"/>
		</g>
		<g>
			
				<rect x="349.627" y="335.227" transform="matrix(0.2689 0.9632 -0.9632 0.2689 589.4725 -84.3218)" fill="#FFFFFF" width="1.304" height="21.793"/>
		</g>
		<g>
			<rect x="332.479" y="217.181" fill="#FFFFFF" width="21.144" height="1.304"/>
		</g>
		<g>
			
				<rect x="363.517" y="203.826" transform="matrix(0.2774 0.9608 -0.9608 0.2774 469.544 -194.6484)" fill="#FFFFFF" width="1.306" height="21.987"/>
		</g>
		<g>
			
				<rect x="315.227" y="335.243" transform="matrix(0.2667 0.9638 -0.9638 0.2667 565.2357 -50.6141)" fill="#FFFFFF" width="1.304" height="21.79"/>
		</g>
		<g>
			<rect x="225.721" y="217.181" fill="#FFFFFF" width="93.553" height="1.304"/>
		</g>
		<g>
			<polygon fill="none" points="223.907,420.958 223.91,420.929 223.317,420.929 			"/>
		</g>
		<path fill="#FBFFFA" d="M374.644,177.851c1.069,0-0.19,22.879,4.542,26.175c4.735,3.299,7.568,3.187,7.413,4.431
			c-0.158,1.245-4.646,0.9-8.539,4.43c-4.604,4.173-10.006,26.021-11.027,26.165c-1.146,0.156-1.102-21.661-4.728-26.165
			c-3.626-4.502-7.565-3.184-7.41-4.429c0.159-1.245,1.879-0.491,8.538-4.432C370.097,200.086,373.581,177.851,374.644,177.851z"/>
		<path fill="#F28980" d="M367.02,239.706c-0.962,0-1.093-0.859-1.681-7.598c-0.557-6.431-1.396-16.147-3.542-18.812
			c-2.138-2.658-4.4-3.153-5.756-3.447c-0.9-0.196-1.926-0.42-1.795-1.473c0.128-0.979,0.833-1.23,2.004-1.647
			c1.251-0.443,3.343-1.188,6.853-3.265c4.412-2.608,7.562-14.427,9.257-20.776c1.256-4.709,1.484-5.491,2.285-5.491
			c0.976,0,1.018,0.982,1.244,6.42c0.257,6.232,0.742,17.833,3.671,19.872c2.308,1.609,4.178,2.396,5.417,2.918
			c1.399,0.59,2.412,1.017,2.271,2.131c-0.118,0.938-1.14,1.242-2.548,1.664c-1.705,0.508-4.034,1.205-6.202,3.167
			c-2.843,2.577-6.15,12.646-8.337,19.308c-2.08,6.331-2.336,6.922-3.037,7.02L367.02,239.706z M355.62,208.405
			c0.183,0.055,0.461,0.117,0.7,0.168c1.417,0.31,4.066,0.889,6.494,3.904c2.393,2.972,3.224,12.534,3.827,19.518
			c0.177,2.025,0.354,4.097,0.536,5.384c0.463-1.219,1.107-3.186,1.739-5.108c2.364-7.199,5.604-17.059,8.702-19.868
			c2.387-2.162,4.984-2.938,6.705-3.451c0.673-0.201,1.508-0.45,1.646-0.632c-0.108-0.122-0.85-0.435-1.503-0.71
			c-1.287-0.543-3.229-1.363-5.652-3.049c-3.459-2.408-3.923-13.53-4.229-20.889c-0.053-1.259-0.104-2.54-0.174-3.548
			c-0.242,0.843-0.521,1.881-0.791,2.901c-1.864,6.989-4.98,18.682-9.854,21.562c-3.617,2.139-5.78,2.911-7.077,3.372
			C356.009,208.202,355.734,208.312,355.62,208.405z"/>
		<g>
			<g>
				<path fill="#FFFFFF" d="M275.764,299c-0.798-3.237-2.5-6.291-4.818-8.422c-0.648-0.596-1.032-0.697-1.521-0.209
					c-0.43,0.433-8.979,9.79-11.097,11.904c-0.55,0.55-0.282,1.26-0.134,1.411c1.322,1.323,3.503,3.366,3.503,3.366
					c0.372,0.376,0.868,0.377,1.292,0.145c0,0,11.751-6.516,12.154-6.795C275.854,299.909,275.837,299.298,275.764,299z"/>
				<path fill="#F28980" d="M262.408,308.006L262.408,308.006c-0.446,0-0.854-0.171-1.176-0.495c-0.006-0.008-2.184-2.051-3.5-3.367
					c-0.396-0.397-0.686-1.515,0.136-2.333c1.448-1.448,6.021-6.41,8.752-9.373c1.442-1.569,2.203-2.394,2.342-2.531
					c0.34-0.339,0.687-0.501,1.062-0.501c0.535,0,0.988,0.347,1.358,0.69c2.386,2.187,4.162,5.292,5.015,8.748
					c0.071,0.299,0.224,1.328-0.888,2.092c-0.405,0.284-10.237,5.737-12.204,6.828C263.021,307.923,262.708,308.006,262.408,308.006
					z M258.689,303.256c1.305,1.303,3.43,3.297,3.451,3.317c0.094,0.091,0.174,0.127,0.268,0.127l0,0
					c0.08,0,0.173-0.026,0.263-0.077c4.652-2.581,11.718-6.511,12.104-6.764c0.369-0.256,0.399-0.525,0.354-0.704
					c-0.777-3.16-2.466-6.112-4.625-8.098c-0.324-0.294-0.451-0.338-0.479-0.345c0,0.003-0.051,0.03-0.137,0.117
					c-0.127,0.125-1.088,1.17-2.308,2.494c-2.741,2.971-7.325,7.946-8.791,9.411C258.576,302.949,258.661,303.193,258.689,303.256z"
					/>
			</g>
			<g>
				<path fill="#FFFFFF" d="M266.115,277.739c-4.465-3.173-8.879-5.539-12.721-6.956c-0.371-0.136-1.217-0.03-1.504,0.744
					c-0.285,0.775-7.064,19.407-7.064,19.407c-0.521,1.427-0.383,2.227,0.828,3.144c0,0,4.379,2.703,7.042,4.183
					c1.277,0.711,1.937,0.054,2.222-0.412c0.286-0.466,10.644-17.374,11.332-18.399C266.698,278.779,266.57,278.065,266.115,277.739
					z"/>
				<path fill="#F28980" d="M253.73,299.227L253.73,299.227c-0.426,0-0.881-0.133-1.354-0.396c-2.645-1.47-7.022-4.169-7.065-4.196
					c-1.657-1.253-1.632-2.472-1.099-3.924c0,0,6.781-18.632,7.062-19.407c0.332-0.902,1.174-1.224,1.793-1.224
					c0.199,0,0.391,0.032,0.552,0.092c4.05,1.494,8.498,3.927,12.869,7.036c0.79,0.562,0.921,1.682,0.297,2.608
					c-0.397,0.591-4.306,6.938-11.001,17.865l-0.314,0.508C255.062,298.858,254.445,299.227,253.73,299.227z M246.048,293.558
					c0.006,0,4.351,2.678,6.964,4.133c0.274,0.153,0.521,0.23,0.721,0.23l0,0c0.096,0,0.375-0.001,0.627-0.413l0.313-0.513
					c4.741-7.74,10.511-17.131,11.035-17.911c0.235-0.353,0.198-0.692,0.024-0.816c-4.274-3.041-8.619-5.418-12.562-6.873
					c-0.011-0.002-0.043-0.01-0.102-0.01c-0.103,0-0.439,0.025-0.564,0.365c-0.285,0.776-7.064,19.407-7.064,19.407
					C244.992,292.377,245.112,292.849,246.048,293.558L246.048,293.558z"/>
			</g>
		</g>
		<g>
			<polygon fill="#F28980" points="263.884,420.929 263.869,420.934 263.869,420.929 223.317,420.929 223.206,420.958 
				224.755,406.259 240.183,406.259 261.24,400.457 287.208,343.208 282.46,343.208 261.479,349.046 241.11,393.82 221.425,393.82 
				200.283,399.901 199.651,406.003 199.625,406.259 196.77,433.368 240.7,433.368 240.71,433.363 240.71,433.368 263.751,480.02 
				246.691,640.016 251.439,640.016 272.436,634.194 289.468,472.773 			"/>
			<path fill="#FFFFFF" d="M251.439,640.67h-4.749c-0.187,0-0.362-0.08-0.486-0.216c-0.124-0.144-0.184-0.322-0.163-0.504
				l17.041-159.811l-22.78-46.119H196.77c-0.185,0-0.362-0.079-0.486-0.217c-0.123-0.141-0.183-0.32-0.164-0.508l3.515-33.462
				c0.028-0.265,0.213-0.486,0.467-0.559l21.143-6.083c0.058-0.016,0.12-0.024,0.18-0.024h19.265l20.194-44.393
				c0.078-0.176,0.234-0.307,0.418-0.357l20.982-5.839c0.057-0.015,0.116-0.022,0.174-0.022h4.75c0.224,0,0.429,0.112,0.549,0.298
				c0.117,0.187,0.14,0.42,0.041,0.623l-25.967,57.25c-0.08,0.177-0.233,0.309-0.42,0.359l-21.054,5.801
				c-0.056,0.019-0.115,0.024-0.174,0.024h-14.84l-1.409,13.364h39.935c0.089,0,0.168,0.018,0.244,0.048
				c0.152,0.055,0.283,0.166,0.359,0.316l25.582,51.847c0.055,0.109,0.076,0.229,0.063,0.355l-17.036,161.414
				c-0.025,0.27-0.212,0.489-0.473,0.562l-20.998,5.826C251.559,640.66,251.501,640.67,251.439,640.67z M247.417,639.366h3.937
				l20.481-5.683l16.968-160.792l-25.32-51.313l-40.091,0.009c-0.21,0.062-0.436,0.01-0.602-0.125
				c-0.167-0.141-0.253-0.353-0.23-0.569l1.547-14.7c0.035-0.333,0.314-0.584,0.65-0.584h15.34l20.673-5.698l25.426-56.048h-3.646
				l-20.603,5.731l-20.243,44.497c-0.107,0.233-0.338,0.383-0.594,0.383h-19.593l-20.629,5.935l-0.613,5.916l-2.78,26.39
				l43.186,0.005c0.145-0.01,0.288,0.031,0.406,0.121c0.088,0.062,0.16,0.146,0.208,0.242l0,0l23.045,46.646
				c0.055,0.111,0.073,0.236,0.061,0.357L247.417,639.366z"/>
		</g>
		<g>
			<polygon fill="#F28980" points="242.744,427.012 202.186,427.012 204.371,406.259 240.183,406.259 266.227,349.046 
				287.208,343.208 283.886,340.03 262.898,345.869 238.341,399.901 200.283,399.901 196.77,433.368 240.71,433.368 263.751,480.02 
				247.361,633.66 213.399,633.66 180.765,567.065 190.162,476.369 167.458,476.369 166.8,482.724 184.888,482.724 184.802,482.745 
				176.068,567.065 211.345,640.016 246.691,640.016 251.439,640.016 268.35,478.861 			"/>
			<path fill="#FFFFFF" d="M251.439,640.67h-40.094c-0.25,0-0.479-0.146-0.587-0.372l-35.277-72.95
				c-0.053-0.104-0.074-0.227-0.062-0.348l8.663-83.626H166.8c-0.186,0-0.361-0.076-0.485-0.216
				c-0.125-0.139-0.184-0.317-0.165-0.504l0.657-6.352c0.034-0.338,0.315-0.589,0.649-0.589h22.705c0.185,0,0.36,0.075,0.484,0.217
				c0.125,0.138,0.184,0.317,0.164,0.503l-9.376,90.513l32.372,66.063h32.969l16.309-152.87l-22.78-46.119H196.77
				c-0.185,0-0.362-0.079-0.486-0.217c-0.123-0.141-0.183-0.32-0.164-0.508l3.515-33.464c0.034-0.331,0.314-0.583,0.648-0.583
				h37.638l24.384-53.652c0.082-0.175,0.233-0.307,0.42-0.357l20.981-5.839c0.226-0.06,0.461-0.002,0.627,0.158l3.326,3.178
				c0.166,0.164,0.237,0.404,0.18,0.632c-0.056,0.227-0.231,0.407-0.457,0.469l-20.688,5.755l-25.917,56.938
				c-0.107,0.229-0.339,0.381-0.595,0.381h-35.223l-2.05,19.446h39.834c0.248,0,0.476,0.142,0.583,0.361l25.605,51.852
				c0.053,0.108,0.075,0.229,0.062,0.355l-16.905,161.159C252.055,640.418,251.775,640.67,251.439,640.67z M211.755,639.366h39.099
				l16.824-160.391l-25.34-51.313h-40.152c-0.184,0-0.361-0.076-0.485-0.212c-0.124-0.144-0.183-0.322-0.165-0.509l2.187-20.75
				c0.035-0.333,0.315-0.584,0.648-0.584h35.392l25.871-56.833c0.078-0.176,0.231-0.307,0.418-0.357l19.878-5.531l-2.229-2.129
				l-20.333,5.655l-24.432,53.758c-0.105,0.234-0.337,0.383-0.594,0.383H200.87l-3.377,32.158l43.216,0.005
				c0.248,0,0.475,0.135,0.584,0.362l23.046,46.646c0.054,0.111,0.072,0.236,0.06,0.357l-16.39,153.646
				c-0.035,0.331-0.313,0.582-0.648,0.582h-33.962c-0.25,0-0.477-0.141-0.585-0.365l-32.634-66.597
				c-0.054-0.108-0.075-0.229-0.062-0.353l9.321-89.981h-21.393l-0.521,5.052h17.363c0.325,0,0.602,0.24,0.646,0.562
				c0.024,0.167-0.019,0.332-0.112,0.463l-8.686,83.854L211.755,639.366z"/>
		</g>
		<g>
			<polyline fill="#F28980" points="300.671,349.046 280.302,393.82 277.007,393.82 255.863,399.901 255.208,406.259 
				279.378,406.259 300.434,400.457 300.46,400.201 326.395,343.226 			"/>
			<path fill="#FFFFFF" d="M279.378,406.911h-24.17c-0.185,0-0.36-0.078-0.485-0.215c-0.121-0.138-0.186-0.32-0.166-0.504
				l0.661-6.357c0.024-0.265,0.209-0.486,0.468-0.559l21.142-6.083c0.058-0.016,0.121-0.024,0.181-0.024h2.877l20.193-44.393
				l1.188,0.54l-20.371,44.774c-0.104,0.233-0.336,0.383-0.595,0.383h-3.2l-20.632,5.935l-0.536,5.2h23.355l20.574-5.671
				c0,0,0-0.005,0.002-0.008l25.935-56.974l1.188,0.54l-25.89,56.88l-0.02,0.152c-0.03,0.266-0.219,0.485-0.473,0.557l-21.057,5.801
				C279.493,406.904,279.438,406.911,279.378,406.911z"/>
		</g>
		<g>
			<path fill="#FFFFFF" d="M279.378,406.911h-24.17c-0.185,0-0.36-0.078-0.485-0.215c-0.121-0.138-0.186-0.32-0.166-0.504
				l0.661-6.357c0.035-0.331,0.312-0.584,0.646-0.584h21.252l22.961-50.475l1.188,0.54l-23.134,50.857
				c-0.104,0.233-0.34,0.382-0.594,0.382h-21.083l-0.521,5.054h23.025l25.824-56.736l13.171-124.75l1.299,0.137l-13.184,124.857
				c-0.009,0.068-0.028,0.137-0.056,0.2l-26.044,57.216C279.861,406.761,279.632,406.911,279.378,406.911z"/>
		</g>
		<g>
			
				<rect x="284.335" y="633.644" transform="matrix(0.9946 0.1041 -0.1041 0.9946 67.8434 -26.2071)" fill="#FFFFFF" width="1.304" height="6.391"/>
		</g>
		<g>
			<polygon fill="#F28980" points="322.681,472.773 297.1,420.929 297.078,420.934 297.078,420.929 278.025,420.929 
				256.882,427.012 256.225,433.368 273.661,433.368 273.675,433.363 273.675,433.368 296.665,480.02 281.216,627.582 
				279.861,627.582 258.721,633.66 258.061,640.016 284.648,640.016 305.702,634.214 			"/>
			<path fill="#FFFFFF" d="M284.648,640.67h-26.588c-0.186,0-0.362-0.08-0.483-0.216c-0.126-0.136-0.185-0.317-0.166-0.504
				l0.659-6.355c0.027-0.267,0.215-0.486,0.469-0.559l21.145-6.084c0.061-0.021,0.116-0.025,0.178-0.025h0.77l15.366-146.786
				l-22.728-46.119h-17.043c-0.188,0-0.36-0.079-0.486-0.217c-0.124-0.141-0.182-0.32-0.164-0.503l0.656-6.358
				c0.029-0.264,0.215-0.483,0.472-0.561l21.142-6.082c0.059-0.017,0.121-0.023,0.182-0.023h19.053c0.088,0,0.174,0.018,0.25,0.048
				c0.152,0.058,0.282,0.166,0.357,0.316l25.579,51.847c0.059,0.109,0.078,0.229,0.067,0.355l-16.98,161.441
				c-0.026,0.262-0.216,0.487-0.477,0.559l-21.05,5.803C284.771,640.66,284.71,640.67,284.648,640.67z M258.785,639.366h25.779
				l20.537-5.66l16.909-160.812l-25.317-51.315h-18.575l-20.632,5.937l-0.536,5.197h16.694c0.144-0.005,0.285,0.036,0.404,0.121
				c0.088,0.066,0.158,0.151,0.209,0.247l0,0l22.991,46.648c0.058,0.109,0.076,0.234,0.063,0.355l-15.451,147.562
				c-0.032,0.331-0.314,0.584-0.646,0.584h-1.261l-20.632,5.933L258.785,639.366z"/>
		</g>
		<g>
			<polygon fill="#F28980" points="285.318,633.66 285.316,633.66 301.559,478.861 275.955,427.012 256.882,427.012 
				256.225,433.368 273.661,433.368 273.675,433.363 273.675,433.368 296.665,480.02 280.573,633.66 258.721,633.66 
				258.061,640.016 284.648,640.016 			"/>
			<path fill="#FFFFFF" d="M284.648,640.67h-26.588c-0.186,0-0.362-0.08-0.483-0.216c-0.126-0.136-0.185-0.317-0.166-0.504
				l0.659-6.355c0.033-0.332,0.314-0.584,0.648-0.584h21.268l16.01-152.87l-22.727-46.117h-17.045c-0.188,0-0.359-0.081-0.485-0.219
				c-0.124-0.141-0.183-0.32-0.164-0.503l0.657-6.358c0.031-0.328,0.316-0.584,0.648-0.584h19.073c0.25,0,0.476,0.142,0.585,0.361
				l25.604,51.852c0.053,0.108,0.074,0.229,0.062,0.355l-16.231,154.753c0,0.017,0,0.03-0.004,0.053l-0.669,6.354
				C285.268,640.418,284.986,640.67,284.648,640.67z M258.785,639.366h25.279l0.601-5.722c0-0.021,0.002-0.034,0.002-0.052
				l16.22-154.617l-25.337-51.313h-18.077l-0.521,5.051h16.693c0.145-0.005,0.287,0.036,0.405,0.121
				c0.091,0.066,0.158,0.151,0.209,0.247l0,0l22.991,46.647c0.057,0.11,0.076,0.235,0.062,0.356l-16.092,153.646
				c-0.033,0.331-0.312,0.583-0.646,0.583h-21.268L258.785,639.366z"/>
		</g>
		<g>
			<g>
				<path fill="#FBFFFA" d="M212.035,387.159c-1.695,0.094-9.194,2.067-17.361,4.332l-0.956,9.178
					c2.169,0.59,4.255,1.279,6.272,2.048l0.292-2.814l21.142-6.083h17.136C224.838,386.805,216.782,386.894,212.035,387.159z"/>
				<path fill="#FBFFFA" d="M255.234,406.917c-0.182,0-0.358-0.078-0.481-0.214c-0.127-0.139-0.185-0.32-0.166-0.505l0.243-2.338
					c-0.008-0.004-0.014-0.011-0.02-0.015c-0.562-0.396-1.111-0.778-1.66-1.162l-12.966,3.573h-14.729l-1.169,11.121
					c17.21,13.918,30.19,30.159,50.676,29.005l1.709-0.503c8.16-2.508,14.709-6.396,19.623-11.493
					c-12.462-5.161-24.789-17.75-37.356-27.472L255.234,406.917L255.234,406.917z"/>
			</g>
			<path fill="#FBFFFA" d="M297.936,561.305c0.287,18.834-5.072,25.582-10.455,31.373c0,0-3.233,4.205-10.926,8.134
				c-0.022,0.218-0.046,0.43-0.065,0.641c10.681-3.444,34.889-11.28,37.089-12.146c24.155-9.513,18.96-38.052,18.96-38.052
				L297.936,561.305z"/>
			<g>
				<path fill="#FBFFFA" d="M252.378,581.715c-28.649-16.366-58.736-49.573-69.96-89.566c-4.596-16.367-8.484-39.99-6.395-59.979
					l-6.582,1.829c-0.057,0.015-0.116,0.025-0.175,0.025h-4.746c-0.187,0-0.362-0.081-0.486-0.219
					c-0.122-0.141-0.183-0.32-0.164-0.503l3.504-33.637c-23.543,10.99-33.184,53.449-21.583,97.403
					c15.418,58.403,64.998,102.057,104.033,107.471L252.378,581.715z"/>
				<path fill="#FBFFFA" d="M287.479,592.678c-3.162,0.041-6.512-0.296-9.994-1.002c-0.321,3.163-0.643,6.28-0.951,9.342
					C280.589,599.014,284.271,596.254,287.479,592.678z"/>
			</g>
			<g>
				<path fill="#FBFFFA" d="M142.496,249.438c0,0,34.02-11.2,39.551-11.376c15.968-0.499,32.643,16.034,40.278,31.596
					c0,0-12.389,3.925-35.674,10.354C180.38,264.372,160.807,244.652,142.496,249.438z"/>
				<path fill="#F28980" d="M186.651,280.664c-0.262,0-0.505-0.159-0.607-0.411c-5.192-12.951-21.221-30.894-37.811-30.894
					c-1.897,0-3.771,0.239-5.571,0.71c-0.341,0.089-0.691-0.108-0.791-0.446c-0.101-0.339,0.087-0.695,0.42-0.806
					c1.393-0.458,34.172-11.232,39.735-11.408c16.116-0.506,33.163,16.225,40.884,31.959c0.084,0.171,0.089,0.368,0.014,0.543
					c-0.075,0.176-0.222,0.309-0.403,0.366c-0.123,0.04-12.666,4.002-35.697,10.36C186.766,280.656,186.708,280.664,186.651,280.664
					z M148.859,248.063c9.516,0.238,17.787,5.839,23.097,10.553c6.469,5.746,12.071,13.41,15.079,20.612
					c19.556-5.408,31.412-9.046,34.365-9.966c-7.692-15.167-23.961-31.029-39.333-30.548
					C178.12,238.84,158.912,244.842,148.859,248.063z"/>
			</g>
			<path fill="#F28980" d="M332.881,550.693c-0.157-0.098-0.35-0.121-0.528-0.065L297.75,560.68
				c-0.277,0.081-0.473,0.345-0.469,0.637c0.275,18.066-4.491,24.688-10.321,30.961c-0.037,0.051-3.146,3.998-10.328,7.761
				c-0.073,0.709-0.146,1.42-0.217,2.125c10.578-3.415,35.147-11.361,37.402-12.253c24.374-9.593,19.41-38.484,19.359-38.776
				C333.146,550.95,333.037,550.794,332.881,550.693z M313.339,588.694c-1.939,0.766-21.551,7.126-33.3,10.929
				c5.432-3.319,7.809-6.355,7.917-6.502c5.711-6.146,10.821-13.169,10.64-31.328l33.402-9.704
				C332.573,556.536,334.594,580.324,313.339,588.694z"/>
			<g>
				<path fill="#F28980" d="M287.966,593.111c0.175-0.196,0.216-0.471,0.106-0.705c-0.106-0.236-0.338-0.378-0.602-0.383
					c-3.143,0.046-6.465-0.292-9.922-0.992c-0.041,0.434-0.09,0.872-0.131,1.299c2.957,0.59,5.826,0.927,8.564,0.993
					c-2.746,2.823-5.892,5.126-9.371,6.894c-0.051,0.514-0.104,1.027-0.154,1.541C280.816,599.663,284.688,596.771,287.966,593.111z
					"/>
				<path fill="#F28980" d="M249.895,603.908c-17.972-2.468-38.114-13.043-56.467-29.872
					c-22.671-20.794-39.365-48.189-47.006-77.136c-11.472-43.46-2.085-85.393,20.873-96.48l0.157-1.504
					c-24.017,10.858-34.035,53.83-22.292,98.317c7.704,29.188,24.532,56.806,47.385,77.76c18.554,17.017,38.958,27.712,57.205,30.21
					L249.895,603.908z"/>
				<path fill="#F28980" d="M227.573,564.346c8.057,7.287,16.451,13.388,24.721,18.09l0.158-1.408
					c-8.025-4.618-16.17-10.565-24.002-17.644c-21.914-19.811-38.04-45.172-45.405-71.414c-2.196-7.818-7.266-28.347-6.936-50.001
					c0.055-3.505,0.256-6.839,0.6-9.984l-1.358,0.373c-0.305,3.034-0.494,6.225-0.545,9.593
					c-0.333,21.831,4.773,42.499,6.982,50.375C189.22,518.796,205.48,544.379,227.573,564.346z"/>
			</g>
			<g>
				<path fill="#F28980" d="M253.964,402.461l-1.631,0.451c0.688,0.475,1.39,0.963,2.101,1.468c0.104,0.075,0.211,0.156,0.319,0.233
					l0.155-1.495C254.585,402.894,254.277,402.68,253.964,402.461z"/>
				<path fill="#F28980" d="M193.787,400.025l-0.139,1.318c2.167,0.598,4.255,1.286,6.272,2.063l0.138-1.353
					C198.042,401.294,195.952,400.612,193.787,400.025z"/>
				<path fill="#F28980" d="M214.804,386.42c-1.098,0-2.075,0.047-2.805,0.089c-1.729,0.096-9.145,2.039-17.251,4.283l-0.145,1.395
					c8.221-2.284,15.803-4.284,17.47-4.376c0.712-0.041,1.668-0.087,2.732-0.087c2.863,0,9.915,0.005,22.271,6.096h2.863
					C225.884,386.428,217.921,386.42,214.804,386.42z"/>
				<path fill="#F28980" d="M296.542,433.791c-8.763-3.631-17.69-11.169-26.324-18.463c-3.353-2.827-6.776-5.716-10.224-8.41h-2.131
					c3.873,2.962,7.74,6.225,11.513,9.408c8.424,7.11,17.125,14.459,25.781,18.291c-4.81,4.728-11.087,8.309-18.669,10.641
					l-1.639,0.483c-0.654,0.028-1.27,0.061-1.937,0.05c-15.045-0.005-26.308-9.906-38.229-20.386
					c-3.306-2.911-6.714-5.901-10.318-8.801l-0.164,1.553c3.349,2.716,6.529,5.51,9.622,8.229
					c12.109,10.646,23.551,20.708,39.09,20.708c0.002,0,0.006,0,0.008,0c0.694,0,1.371-0.021,2.076-0.061
					c0.051,0,0.1-0.012,0.146-0.025l1.719-0.499c8.164-2.513,14.856-6.436,19.896-11.663c0.151-0.161,0.219-0.378,0.174-0.595
					C296.886,434.047,296.743,433.871,296.542,433.791z"/>
			</g>
			<g>
				<path fill="#FBFFFA" d="M144.497,249.015l-2.001,0.422c-29.257,11.488-10.035,70.363,25.891,73.359
					c6.784,0.565,13.031-0.253,19.222-1.554c-0.01-0.075-0.019-0.149-0.03-0.225c-0.092-0.62-0.17-1.241-0.238-1.869
					c-0.028-0.251-0.05-0.503-0.076-0.755c-0.05-0.555-0.092-1.114-0.125-1.674c-0.016-0.237-0.031-0.477-0.041-0.716
					c-0.038-0.786-0.062-1.571-0.062-2.365c0-2.27,0.153-4.502,0.443-6.69c-16.82-10.826-26.428-36.103-21.001-51.807
					C159.698,250.467,152.038,247.769,144.497,249.015z"/>
				<path fill="#FBFFFA" d="M288.675,311.661c0.023,0.657,0.041,1.314,0.041,1.978c0,0.667-0.021,1.354-0.054,2.048
					c-0.229,5.746-1.409,11.241-3.389,16.344c-0.113,0.292-0.231,0.584-0.348,0.877c-0.102,0.239-0.195,0.483-0.297,0.723
					c-0.882,2.092-1.927,4.147-3.129,6.122c0.229,0.255,0.457,0.507,0.684,0.766l1.893-0.489l3.132,3.178l-1,2.206
					c5.181,6.797,9.806,14.914,13.614,24.538c15.476,39.092,6.792,67.681-24.86,76.433c25.07-5.162,40.305-10.701,43.741-11.763
					c26.247-8.108,31.573-47.943,11.097-82.339C317.045,330.865,303.566,318.312,288.675,311.661z"/>
			</g>
			<path fill="#F28980" d="M166.851,254.604c-6.212-4.28-12.649-6.544-18.618-6.544c-1.293,0-2.586,0.106-3.869,0.317l-2.003,0.423
				c-0.035,0.007-0.069,0.018-0.103,0.032c-11.113,4.363-16.425,16.008-14.205,31.153c2.922,19.958,18.789,41.671,40.278,43.46
				c1.468,0.124,2.971,0.187,4.467,0.187c5.182,0,10.058-0.722,14.915-1.742c-0.022-0.144-0.053-0.285-0.076-0.43
				c-0.022-0.146-0.039-0.293-0.059-0.442c-0.021-0.14-0.036-0.282-0.054-0.421c-4.814,1.013-9.631,1.728-14.726,1.728
				c-1.46,0-2.926-0.059-4.357-0.179c-20.845-1.739-36.247-22.897-39.098-42.349c-2.121-14.481,2.866-25.589,13.341-29.731
				l1.92-0.405c6.583-1.089,13.948,0.924,21.101,5.742c-3.648,11.274-0.089,27.231,8.944,39.912
				c3.76,5.278,8.075,9.43,12.739,12.369c0.055-0.477,0.118-0.952,0.188-1.425c-4.328-2.831-8.342-6.757-11.864-11.702
				c-8.788-12.335-12.332-28.456-8.615-39.202C167.193,255.077,167.091,254.77,166.851,254.604z"/>
		</g>
	</g>
	<path fill="#F28980" d="M330.361,351.95c-12.329-20.706-25.613-33.987-41.719-41.034c0.025,0.491,0.045,0.987,0.057,1.483
		c15.599,7.015,28.522,20.041,40.539,40.218c6.167,10.359,10.232,21.7,11.749,32.794c1.456,10.651,0.542,20.664-2.645,28.95
		c-3.854,10.03-10.715,16.819-19.829,19.641c-0.475,0.141-1.155,0.373-2.058,0.67c-4.636,1.531-15.779,5.223-32.259,9.029
		c8.753-4.109,15.179-10.213,19.168-18.219c6.979-14.011,5.963-33.294-2.934-55.771c-3.852-9.725-8.445-17.753-13.464-24.405
		l-0.618,1.362c4.787,6.451,9.172,14.195,12.865,23.523c8.761,22.122,9.79,41.041,2.98,54.71
		c-5.086,10.213-14.311,17.231-27.407,20.854c-0.343,0.096-0.543,0.438-0.464,0.781c0.074,0.297,0.341,0.503,0.636,0.503
		c0.045,0,0.088-0.005,0.131-0.015c21.713-4.474,36.285-9.298,41.777-11.114c0.886-0.297,1.562-0.521,2.026-0.665
		c9.514-2.941,16.659-10.001,20.665-20.414C346.396,397.055,342.868,372.961,330.361,351.95z"/>
</g>
</svg>
