<?xml version="1.0" encoding="utf-8"?>
<!-- Generator: Adobe Illustrator 15.0.0, SVG Export Plug-In . SVG Version: 6.00 Build 0)  -->
<!DOCTYPE svg PUBLIC "-//W3C//DTD SVG 1.1//EN" "http://www.w3.org/Graphics/SVG/1.1/DTD/svg11.dtd">
<svg version="1.1" xmlns="http://www.w3.org/2000/svg" xmlns:xlink="http://www.w3.org/1999/xlink" x="0px" y="0px" width="800px"
	 height="106.887px" viewBox="0 0 800 106.887" enable-background="new 0 0 800 106.887" xml:space="preserve">
<g id="logotype_B_x2F_W">
</g>
<g id="logotype">
	<g id="line">
		<polygon fill="#EDF7F3" points="785.408,84.921 46.212,84.921 14.935,47.936 362.402,47.936 362.402,50.178 19.766,50.178 
			47.252,82.681 785.408,82.681 		"/>
	</g>
	<g id="shadow">
		<path fill="#EDF7F3" d="M455.013,49.057h0.063c0-0.01,0.001-0.019,0.001-0.029c0-2.951-0.57-5.716-1.709-8.294
			c-1.139-2.577-2.68-4.819-4.623-6.724c-1.942-1.906-4.211-3.399-6.808-4.483c-2.597-1.083-5.372-1.625-8.322-1.625h-15.577v21.155
			h-0.062l17.651,21.036h15.579c2.914,0,5.224-0.539,6.929-1.625c1.706-1.082,2.73-2.577,3.075-4.482
			c0.343-1.906,0.011-4.138-0.996-6.696C459.215,54.756,457.481,52.012,455.013,49.057z M447.441,57.961
			c-0.303,0.953-0.996,1.662-2.08,2.13c-1.084,0.468-2.448,0.7-4.092,0.7h-2.466l-9.846-11.734h0.063V37.204h2.577
			c1.756,0,3.371,0.263,4.848,0.785c1.475,0.524,2.746,1.289,3.811,2.297c1.063,1.009,1.896,2.242,2.493,3.699
			c0.597,1.457,0.896,3.138,0.896,5.043c0,0.01-0.001,0.019-0.001,0.029h-0.065c1.682,2.016,2.823,3.763,3.415,5.234
			C447.594,55.787,447.743,57.009,447.441,57.961z"/>
		<path fill="#EDF7F3" d="M76.657,49.057h0.062c0-0.01,0.001-0.019,0.001-0.029c0-2.951-0.57-5.716-1.709-8.294
			c-1.139-2.577-2.68-4.819-4.623-6.724c-1.942-1.906-4.211-3.399-6.808-4.483c-2.597-1.083-5.372-1.625-8.322-1.625H39.681v21.155
			H39.62l17.652,21.036H72.85c2.915,0,5.225-0.539,6.93-1.625c1.705-1.082,2.731-2.577,3.074-4.482
			c0.344-1.906,0.012-4.138-0.996-6.696C80.861,54.756,79.126,52.012,76.657,49.057z M69.087,57.961
			c-0.303,0.953-0.997,1.662-2.081,2.13s-2.448,0.7-4.091,0.7H60.45l-9.847-11.734h0.062V37.204h2.577
			c1.756,0,3.371,0.263,4.848,0.785c1.475,0.524,2.746,1.289,3.811,2.297c1.064,1.009,1.896,2.242,2.494,3.699
			c0.597,1.457,0.896,3.138,0.896,5.043c0,0.01-0.001,0.019-0.001,0.029h-0.063c1.682,2.016,2.823,3.763,3.416,5.234
			C69.24,55.787,69.389,57.009,69.087,57.961z"/>
		<path fill="#EDF7F3" d="M752.852,62.052c-1.092-2.035-2.516-4.1-4.271-6.192c-1.441-1.719-2.959-3.202-4.551-4.454
			c-1.107-0.87-2.24-1.65-3.393-2.349h0.02c-0.232-0.285-0.479-0.559-0.744-0.813c-0.936-0.896-2.037-1.654-3.307-2.27
			c-1.271-0.616-2.635-1.148-4.092-1.597l-2.801-0.84c-0.486-0.149-1.008-0.326-1.568-0.532c-0.561-0.206-1.086-0.467-1.57-0.785
			c-0.486-0.317-0.896-0.69-1.232-1.121c-0.336-0.429-0.504-0.962-0.504-1.597c0-0.598,0.148-1.112,0.447-1.541
			c0.299-0.429,0.682-0.794,1.148-1.094c0.467-0.299,0.973-0.522,1.514-0.672c0.541-0.149,1.074-0.224,1.598-0.224
			c1.344,0,2.643,0.251,3.895,0.756c1.25,0.505,2.381,1.187,3.391,2.046l4.369-8.517c-0.934-0.523-1.951-1-3.053-1.43
			c-1.102-0.429-2.223-0.793-3.361-1.092c-1.141-0.299-2.299-0.533-3.477-0.7c-1.176-0.168-2.287-0.253-3.334-0.253
			c-2.129,0-4.082,0.336-5.854,1.009c-1.775,0.672-3.307,1.625-4.596,2.857s-2.299,2.728-3.027,4.483
			c-0.729,1.757-1.092,3.698-1.092,5.828c0,2.054,0.27,3.735,0.812,5.043c0.502,1.215,1.217,2.227,2.123,3.055h-0.004
			c0.084,0.043,0.168,0.093,0.254,0.135c1.73,0.859,3.523,1.56,5.377,2.101c1.857,0.543,3.848,1.057,5.973,1.541
			c0.756,0.188,1.609,0.393,2.562,0.616c0.955,0.225,1.934,0.524,2.938,0.898c1.006,0.373,1.959,0.821,2.867,1.345
			c0.906,0.522,1.688,1.177,2.344,1.961c0.629,0.748,1.012,1.393,1.148,1.933c0.137,0.543,0.094,0.98-0.129,1.317
			s-0.58,0.589-1.074,0.756c-0.494,0.169-1.059,0.253-1.693,0.253c-1.906,0-4.021-0.429-6.35-1.288
			c-2.328-0.86-4.684-1.887-7.068-3.082l2.721,8.853c3.453,1.532,6.793,2.718,10.02,3.56c3.227,0.84,6.186,1.26,8.875,1.26
			c2.131,0,3.98-0.309,5.557-0.924c1.574-0.617,2.607-1.635,3.096-3.055C754.244,65.817,753.945,64.089,752.852,62.052z"/>
		<polygon fill="#EDF7F3" points="142.935,60.792 136.822,53.507 149.206,53.507 145.472,49.057 145.533,49.057 145.533,44.265 
			133.149,44.265 133.149,37.204 146.206,37.204 146.206,27.902 122.167,27.902 122.167,49.057 122.105,49.057 139.758,70.093 
			163.796,70.093 155.991,60.792 		"/>
		<polygon fill="#EDF7F3" points="516.807,60.792 510.693,53.507 523.078,53.507 519.344,49.057 519.408,49.057 519.408,44.265 
			507.023,44.265 507.023,37.204 520.08,37.204 520.08,27.902 496.041,27.902 496.041,49.057 495.977,49.057 513.629,70.093 
			537.668,70.093 529.863,60.792 		"/>
		<polygon fill="#EDF7F3" points="215.221,60.792 205.374,49.057 205.437,49.057 205.437,27.902 194.454,27.902 194.454,49.057 
			194.392,49.057 212.044,70.093 236.195,70.093 228.39,60.792 		"/>
		<polygon fill="#EDF7F3" points="361.183,49.057 361.288,49.057 376.291,27.902 363.123,27.902 355.221,39.39 347.32,27.902 
			334.151,27.902 349.154,49.057 349.134,49.057 350.298,49.809 367.319,70.093 378.302,70.093 361.281,49.809 		"/>
		<polygon fill="#EDF7F3" points="587.971,60.792 578.125,49.057 578.189,49.057 578.189,27.902 567.207,27.902 567.207,49.057 
			567.143,49.057 584.795,70.093 608.945,70.093 601.141,60.792 		"/>
		<path fill="#EDF7F3" d="M678.922,59.559c-0.785-1.271-1.707-2.578-2.76-3.924c-1.055-1.344-2.146-2.688-3.273-4.034l-2.135-2.544
			h0.064V27.902h-10.984v21.155h-0.064l0.865,1.032c1.16,1.382,2.258,2.755,3.289,4.119c1.033,1.363,1.768,2.598,2.207,3.698
			c0.439,1.102,0.436,1.989-0.008,2.661c-0.445,0.674-1.545,1.01-3.301,1.01s-3.42-0.336-4.992-1.01
			c-1.574-0.672-3.066-1.56-4.477-2.661c-1.41-1.101-2.742-2.335-3.998-3.698c-1.258-1.364-2.465-2.736-3.625-4.119l-0.867-1.032
			h0.064V27.902h-10.982v21.155h-0.064l2.135,2.544c1.129,1.345,2.295,2.69,3.498,4.034c1.203,1.346,2.479,2.653,3.824,3.924
			c1.346,1.27,2.811,2.493,4.396,3.67c1.584,1.177,3.324,2.269,5.215,3.278c1.619,0.861,3.229,1.59,4.834,2.186
			c1.602,0.598,3.168,1.084,4.697,1.457c1.525,0.373,3.004,0.645,4.436,0.812c1.43,0.168,2.76,0.252,3.994,0.252
			c1.232,0,2.422-0.084,3.57-0.252c1.146-0.168,2.172-0.439,3.072-0.812s1.65-0.859,2.252-1.457
			c0.602-0.596,0.988-1.324,1.164-2.186c0.199-1.01,0.105-2.102-0.285-3.278C680.295,62.052,679.707,60.829,678.922,59.559z"/>
		<path fill="#EDF7F3" d="M293.816,49.057l-7.968-21.155h-11.992l-8.136,21.155h-0.085l9.561,21.036h11.656l-3.246-7.34h15.13
			l8.906,7.34h11.711l-25.575-21.036H293.816z M288.712,54.348h-9.133l-2.654-5.291h0.082l2.733-8.098h0.113l2.699,8.098h-0.042
			L288.712,54.348z"/>
	</g>
	<g id="type">
		<path fill="#C3E7EF" d="M58.359,27.902h15.578c2.951,0,5.725,0.542,8.321,1.625c2.596,1.083,4.866,2.577,6.809,4.483
			c1.942,1.905,3.483,4.147,4.623,6.724c1.139,2.578,1.709,5.343,1.709,8.294c0,2.989-0.57,5.762-1.709,8.322
			c-1.14,2.559-2.681,4.79-4.623,6.695c-1.943,1.905-4.222,3.401-6.836,4.483c-2.615,1.084-5.379,1.625-8.293,1.625H58.359V27.902z
			 M69.342,60.852h2.466c1.643,0,3.202-0.233,4.679-0.7c1.475-0.468,2.764-1.177,3.867-2.13c1.101-0.953,1.979-2.176,2.633-3.67
			c0.653-1.494,0.98-3.27,0.98-5.324c0-1.905-0.299-3.586-0.896-5.043c-0.598-1.458-1.429-2.69-2.494-3.699
			c-1.064-1.008-2.335-1.773-3.81-2.297c-1.477-0.522-3.092-0.785-4.848-0.785h-2.578V60.852z"/>
		<path fill="#C3E7EF" d="M151.829,37.204v7.062h12.384v9.302h-12.384v7.285h13.056v9.302h-24.039V27.902h24.039v9.302H151.829z"/>
		<path fill="#C3E7EF" d="M224.115,60.852h13.168v9.302h-24.151V27.902h10.983V60.852z"/>
		<path fill="#C3E7EF" d="M290.854,62.813l-2.914,7.341h-11.656l16.25-42.252h11.992l15.915,42.252H308.73l-2.746-7.341H290.854z
			 M298.531,40.959h-0.112l-4.539,13.449h9.134L298.531,40.959z"/>
		<path fill="#C3E7EF" d="M352.83,27.902h13.169L373.9,39.39l7.901-11.488h13.168l-15.578,21.967v20.285h-10.983V49.869
			L352.83,27.902z"/>
		<path fill="#C3E7EF" d="M435.596,27.902h15.579c2.951,0,5.724,0.542,8.32,1.625s4.866,2.577,6.81,4.483
			c1.942,1.905,3.483,4.147,4.623,6.724c1.138,2.578,1.708,5.343,1.708,8.294c0,2.989-0.57,5.762-1.708,8.322
			c-1.14,2.559-2.681,4.79-4.623,6.695c-1.943,1.905-4.222,3.401-6.837,4.483c-2.615,1.084-5.379,1.625-8.293,1.625h-15.579V27.902z
			 M446.579,60.852h2.466c1.644,0,3.203-0.233,4.679-0.7c1.475-0.468,2.763-1.177,3.867-2.13c1.101-0.953,1.979-2.176,2.633-3.67
			c0.653-1.494,0.98-3.27,0.98-5.324c0-1.905-0.3-3.586-0.896-5.043c-0.599-1.458-1.428-2.69-2.494-3.699
			c-1.064-1.008-2.334-1.773-3.81-2.297c-1.477-0.522-3.092-0.785-4.848-0.785h-2.578V60.852z"/>
		<path fill="#C3E7EF" d="M525.703,37.204v7.062h12.383v9.302h-12.383v7.285h13.057v9.302h-24.041V27.902h24.041v9.302H525.703z"/>
		<path fill="#C3E7EF" d="M596.867,60.852h13.168v9.302h-24.15V27.902h10.982V60.852z"/>
		<path fill="#C3E7EF" d="M689.496,27.902v23.76c0,1.345-0.037,2.69-0.111,4.034c-0.076,1.346-0.252,2.653-0.531,3.923
			c-0.281,1.271-0.721,2.494-1.318,3.671s-1.42,2.27-2.465,3.277c-0.896,0.86-1.898,1.589-2.998,2.187
			c-1.104,0.598-2.262,1.084-3.475,1.457c-1.215,0.373-2.467,0.645-3.754,0.812c-1.289,0.168-2.551,0.252-3.783,0.252
			c-1.234,0-2.494-0.084-3.781-0.252c-1.289-0.168-2.541-0.439-3.756-0.812c-1.213-0.373-2.373-0.859-3.475-1.457
			s-2.102-1.326-2.996-2.187c-1.047-1.008-1.869-2.101-2.467-3.277s-1.037-2.4-1.316-3.671c-0.279-1.27-0.459-2.577-0.533-3.923
			c-0.076-1.344-0.113-2.689-0.113-4.034v-23.76h10.984v22.247c0,1.382,0.055,2.755,0.17,4.119c0.111,1.363,0.408,2.597,0.895,3.697
			c0.486,1.103,1.232,1.99,2.242,2.662c1.008,0.672,2.389,1.009,4.146,1.009c1.756,0,3.137-0.337,4.146-1.009
			s1.756-1.56,2.242-2.662c0.484-1.101,0.783-2.334,0.896-3.697c0.111-1.364,0.166-2.737,0.166-4.119V27.902H689.496z"/>
		<path fill="#C3E7EF" d="M755.508,38.773c-1.01-0.859-2.139-1.541-3.391-2.046c-1.252-0.504-2.551-0.756-3.895-0.756
			c-0.523,0-1.055,0.075-1.598,0.224c-0.541,0.15-1.047,0.373-1.512,0.672c-0.467,0.3-0.85,0.665-1.15,1.094
			c-0.297,0.429-0.445,0.943-0.445,1.541c0,0.635,0.166,1.167,0.502,1.597c0.338,0.43,0.748,0.803,1.232,1.121
			c0.486,0.317,1.01,0.579,1.57,0.785c0.561,0.206,1.084,0.383,1.57,0.532l2.801,0.84c1.455,0.449,2.82,0.98,4.092,1.597
			c1.27,0.616,2.369,1.374,3.305,2.27c0.932,0.896,1.672,1.971,2.213,3.222c0.541,1.252,0.812,2.738,0.812,4.455
			c0,2.093-0.307,4.156-0.924,6.192c-0.617,2.037-1.764,3.764-3.445,5.184s-3.568,2.438-5.66,3.055
			c-2.094,0.615-4.203,0.924-6.334,0.924c-2.689,0-5.295-0.42-7.816-1.26c-2.521-0.842-4.865-2.027-7.033-3.56l4.709-8.854
			c1.381,1.196,2.877,2.224,4.482,3.082c1.605,0.86,3.363,1.29,5.268,1.29c0.635,0,1.27-0.085,1.904-0.253s1.205-0.421,1.709-0.757
			c0.506-0.336,0.916-0.774,1.232-1.316c0.318-0.541,0.477-1.186,0.477-1.933c0-0.785-0.232-1.438-0.699-1.962
			c-0.469-0.523-1.047-0.972-1.738-1.345s-1.418-0.673-2.186-0.896c-0.766-0.224-1.447-0.429-2.043-0.617
			c-1.721-0.485-3.279-0.998-4.68-1.541c-1.402-0.541-2.605-1.241-3.615-2.102c-1.008-0.858-1.783-1.941-2.326-3.249
			c-0.541-1.308-0.812-2.989-0.812-5.043c0-2.13,0.365-4.071,1.092-5.828c0.73-1.755,1.738-3.25,3.027-4.483s2.82-2.186,4.596-2.857
			c1.773-0.673,3.725-1.009,5.855-1.009c1.045,0,2.158,0.084,3.334,0.253c1.178,0.167,2.334,0.401,3.475,0.7
			c1.139,0.299,2.26,0.664,3.363,1.092c1.1,0.43,2.119,0.906,3.053,1.43L755.508,38.773z"/>
	</g>
</g>
</svg>
