<?xml version="1.0" encoding="utf-8"?>
<!-- Generator: Adobe Illustrator 16.0.4, SVG Export Plug-In . SVG Version: 6.00 Build 0)  -->
<!DOCTYPE svg PUBLIC "-//W3C//DTD SVG 1.1//EN" "http://www.w3.org/Graphics/SVG/1.1/DTD/svg11.dtd">
<svg version="1.1" id="Layer_1" xmlns="http://www.w3.org/2000/svg" xmlns:xlink="http://www.w3.org/1999/xlink" x="0px" y="0px"
	 width="104.586px" height="156.332px" viewBox="0 0 104.586 156.332" enable-background="new 0 0 104.586 156.332"
	 xml:space="preserve">
<path fill="#D8E7EB" d="M104.586,156.332V8.672c0-1.559-1.275-2.834-2.835-2.834h-4.664c-1.56,0-2.835,1.275-2.835,2.834v147.66
	H104.586z"/>
<g>
	<path fill="#EBEEE7" d="M95.75,0h-4.581c-1.561,0-4.102,0.148-5.65,0.329l-8.619,1.008c-0.463,0.054-0.963,0.08-1.459,0.08
		c-1.166,0-2.312-0.141-2.914-0.386c-0.856-0.35-1.775-0.725-2.041-0.833C70.219,0.09,69.587,0,69.083,0s-2.191,0-3.752,0H2.834
		C1.275,0,0,1.275,0,2.835v150.663c0,1.559,1.275,2.834,2.834,2.834H95.75c1.56,0,2.835-1.275,2.835-2.834V2.835
		C98.584,1.275,97.31,0,95.75,0L95.75,0z"/>
</g>
<g id="Layer_1_1_" display="none">
	<g display="inline">
		
			<image overflow="visible" enable-background="new    " width="639" height="414" id="rGSsW8_1_" xlink:href="994199AC1DB55A28.png"  transform="matrix(0.2535 0 0 0.2525 -32.2075 26.4355)">
		</image>
	</g>
</g>
<path fill="#F79B89" d="M44.159,138.148c0.983,1.02,2.907,1.852,4.273,1.852H85.64c1.366,0,2.484-1.199,2.484-2.665V36.576
	c0-1.467-0.79-3.516-1.756-4.554L68.263,12.553c-0.965-1.038-2.871-1.887-4.24-1.887H12.945c-1.367,0-2.485,1.199-2.485,2.667
	v87.278c0,1.467,0.805,3.498,1.789,4.517L44.159,138.148z"/>
</svg>
