<?xml version="1.0" encoding="utf-8"?>
<!-- Generator: Adobe Illustrator 16.0.4, SVG Export Plug-In . SVG Version: 6.00 Build 0)  -->
<!DOCTYPE svg PUBLIC "-//W3C//DTD SVG 1.1//EN" "http://www.w3.org/Graphics/SVG/1.1/DTD/svg11.dtd">
<svg version="1.1" xmlns="http://www.w3.org/2000/svg" xmlns:xlink="http://www.w3.org/1999/xlink" x="0px" y="0px" width="1092px"
	 height="995.068px" viewBox="0 0 1092 995.068" enable-background="new 0 0 1092 995.068" xml:space="preserve">
<g id="Layer_1">
</g>
<g id="lines">
	<g>
		<g>
			<g>
				<path fill="#8C87CF" d="M206.184,769.204c-8.277,0-65.499,0-65.499,0c-1,0-1.4,0.425-1.81,1.805l-29.74,111.621
					c-0.232,0.977,0.255,1.802,1.818,1.802h63.45c1.351,0,2.069-0.316,2.502-1.802l11.686-43.211
					c0.316-1.137-0.114-1.798-1.773-1.798H160c-0.937,0-1.462,0.549-1.8,1.798l-8.726,32.408h-7.408l24.19-89.905
					c8.953,0,22.144,0,27.723,0c10.677,0,20.112,12.562,14.177,35.028l-7.682,28.55c-3.985,14.752-8.843,16.761-13.688,19.387
					c-1.109,0.601-1.792,1.679-2.128,2.938l-3.971,14.67c-0.351,1.3,0.538,1.937,1.89,1.937c10.603,0,38.35-3.095,47.759-38.802
					l7.782-28.663C246.633,785.181,221.14,769.204,206.184,769.204z"/>
			</g>
			<g>
				<path fill="#8C87CF" d="M953.738,767.002c-13.039,0-32.944,0.602-39.597,23.426l-4.288,14.384c-0.363,1.253,0.093,1.8,1.742,1.8
					h24.82c1.175,0,1.649-0.712,1.97-1.81c0,0,3.321-12.435,4.282-16.062c0.961-3.626,2.584-7.334,8.736-7.334
					c6.365,0,5.643,4.97,5.09,7.334l-2.458,9.561c-1.248,4.813-7.362,9.188-9.927,10.998l-31.112,23.319
					c-2.604,1.995-13.946,12.219-17.516,26.497l-3.445,13.668l-2.507,9.422c-0.351,1.276,0.399,1.826,1.749,1.826h66.192
					c1.236,0,1.75-0.488,2.138-1.789l9.689-37.842c0.299-1.254-0.45-1.779-1.85-1.779H944.77c-1.104,0-1.504,0.576-1.806,1.788
					l-7.24,28.806h-12.798l3.58-14.1c2.49-9.935,9.46-16.696,13.252-20.01l29.376-22.11c6.241-4.98,10.834-10.384,12.497-18.612
					l1.179-7.955C984.477,774.403,966.778,767.002,953.738,767.002z"/>
			</g>
			<g>
				<path fill="#8C87CF" d="M828.273,885.832c-19.843,0-34.373-6.736-32.03-16.221l3.858-14.404
					c0.283-0.942,0.797-1.796,1.765-1.796h25.158c1.601,0,2.126,0.588,1.754,1.821l-3.572,12.142
					c-1.064,4.085,2.223,5.854,5.928,5.854c4.812,0,8.523-2.707,9.451-5.854c0.925-3.146,2.212-7.52-1.284-10.226l-20.902-16.618
					c-7.024-5.978-11.3-10.822-9.484-17.896c3.572-13.937,15.334-16.022,40.167-16.022c19.604,0,34.018,8.026,31.876,16.022
					l-2.953,10.983c-0.367,1.202-1.117,1.821-2.151,1.821h-24.455c-1.382,0-2.15-0.488-1.786-1.825l1.551-5.602
					c1.065-4.085-2.327-5.411-6.036-5.411c-9.249,0-10.897,5.768-7.292,8.809l19.957,15.809c6.6,5.727,13.595,11.407,11.062,20.607
					C864.771,882.64,853.104,885.832,828.273,885.832z"/>
			</g>
			<g>
				<path fill="#8C87CF" d="M415.346,825.224c0.664-2.617-2.81-5.745-7.378-5.745c-3.969,0-7.514,3.085-8.233,6.448l-0.589,2.357
					c-0.199,0.805-0.818,1.384-1.851,1.923l-28.569,15.385c-1.465,0.808-2.46,0.171-2.188-1.095
					c0.51-2.381,4.153-15.479,4.153-15.479c2.359-10.735,19.198-22.271,41.039-22.271c16.162,0,34.533,9.66,30.99,22.271
					l-12.907,47.917c-1.328,4.955-2.709,7.078-7.643,7.078l-37.295,0.058c-16.658,0.044-28.214-4.815-25.339-15.362
					c2.978-10.915,6.136-12.812,12.707-17.012l36.34-19.658c0.567-0.32,1.123,0.035,0.937,0.735c0,0-2.873,11.19-3.137,12.188
					c-0.218,0.813-0.741,1.154-1.915,1.802l-11.922,6.269l-2.018,7.415l-1.844,6.778c-1.063,4.083,2.33,5.41,6.036,5.41
					c4.811,0,8.277-1.479,9.34-5.41l5.171-19.152l1.562-6.078L415.346,825.224z"/>
			</g>
			<g>
				<path fill="#8C87CF" d="M774.164,810.341l-15.2,57.203c-1.063,3.932-4.818,5.715-9.632,5.715c-3.705,0-6.811-1.632-5.745-5.715
					l15.351-57.185c0.316-1.177-0.54-1.778-1.69-1.778h-25.03c-0.824,0-1.314,0.415-1.684,1.792l-13.938,52.13
					c-4.515,16.827,13.233,21.555,29.895,21.511h32.175c3.834,0,4.602-1.784,5.632-5.385l18.304-68.25
					c0.342-1.271-0.392-1.798-1.793-1.798h-24.979C774.852,808.581,774.492,809.105,774.164,810.341z"/>
			</g>
			<g>
				<path fill="#8C87CF" d="M575.441,884.031h-25.644c-1.412,0-2.028-0.367-1.642-1.802l14.94-55.292
					c0.808-3.194-2.667-6.257-6.91-6.257c-4.243,0-8.262,1.041-9.856,6.257l-10.073,37.301c-1.061,3.96,0.756,7.188,3.411,7.188
					h5.727c1.238,0,2.102,0.562,1.711,1.802l-2.628,9.011c-0.278,0.953-0.797,1.792-1.79,1.792h-16.366
					c-8.71,0-20.487-4.273-17.093-16.947c6.643-24.81,8.647-32.285,10.575-39.483c4.434-16.555,17.854-20.989,28.039-20.989
					c17.426,0,20.341,11.548,20.341,11.548l12.707-47.556c0.374-1.328,0.852-1.8,1.938-1.8h22.633c1.271,0,2.237,0.384,1.862,1.8
					l-29.897,111.654C577.09,883.512,576.507,884.031,575.441,884.031z"/>
			</g>
			<g>
				<path fill="#8C87CF" d="M491.45,810.199l-23.526,62.437l10.209-62.403c0.235-1.269-0.218-1.821-1.729-1.821
					c-1.909,0-22.278,0-22.278,0c-1.275,0-2.064,0.669-2.166,1.802l-4.851,75.619c-0.403,6.303-1.4,10.802-5.461,10.802h-9.317
					c-1.033,0-1.574,0.772-1.858,1.82l-2.431,8.984c-0.362,1.135,0.2,1.798,1.814,1.798h11.823h14.149
					c10.186,0,23.195-9.256,28.69-23.404l33.242-75.628c0.454-1.028-0.251-1.793-1.734-1.793h-22.554
					C492.304,808.411,491.854,809.129,491.45,810.199z"/>
			</g>
			<g>
				<path fill="#8C87CF" d="M263.797,865.843c-0.9,3.856,2.214,6.793,6.78,6.793c3.968,0,7.729-2.646,8.445-6.014
					c0,0,1.205-4.397,1.219-4.454c0.197-0.823,0.786-1.476,1.497-1.933l28.93-15.566c1.467-0.809,2.502-0.162,2.19,1.094
					l-4.739,17.803c-2.36,10.73-19.198,22.267-41.041,22.267c-16.16,0-34.533-9.66-30.99-22.267l11.196-41.595
					c2.854-9.211,15.674-15.359,40.503-15.359c16.66,0,33.683,7.366,31.539,15.359c0,0-2.467,8.853-2.646,9.741
					c-0.177,0.886-0.756,1.825-1.868,2.481c-1.002,0.586-43.724,23.923-43.724,23.923c-0.737,0.408-1.236-0.023-1.072-0.659
					c0.161-0.64,3.002-11.734,3.002-11.734c0.217-0.812,0.612-1.239,1.275-1.627l12.562-6.909l2.916-10.658
					c1.063-4.083-2.192-5.848-5.899-5.848c-4.811,0-8.413,1.916-9.477,5.848l-4.474,16.669L263.797,865.843z"/>
			</g>
			<g>
				<path fill="#8C87CF" d="M619.131,865.843c-0.902,3.856,2.21,6.793,6.779,6.793c3.968,0,7.729-2.646,8.445-6.014
					c0,0,1.205-4.397,1.219-4.454c0.195-0.823,0.783-1.476,1.496-1.933l28.931-15.566c1.466-0.809,2.5-0.162,2.187,1.094
					l-4.739,17.803c-2.356,10.73-19.195,22.267-41.036,22.267c-16.162,0-34.533-9.66-30.992-22.267l11.197-41.595
					c2.855-9.211,15.673-15.359,40.504-15.359c16.658,0,33.682,7.366,31.539,15.359c0,0-2.471,8.853-2.646,9.741
					c-0.179,0.886-0.759,1.825-1.87,2.481c-1,0.586-43.723,23.923-43.723,23.923c-0.737,0.408-1.238-0.023-1.074-0.659
					c0.163-0.64,3.004-11.734,3.004-11.734c0.215-0.812,0.611-1.239,1.275-1.627l12.561-6.909l2.917-10.658
					c1.062-4.083-2.192-5.848-5.9-5.848c-4.811,0-8.411,1.916-9.476,5.848l-4.475,16.669L619.131,865.843z"/>
			</g>
			<g>
				<path fill="#8C87CF" d="M370.979,768.804c0,0-24.119,0-25.393,0c-1.113,0-1.534,0.756-1.804,1.794l-24.735,91.331
					c-4.547,15.528,5.576,22.126,17.701,22.126c0.527,0,11.258,0,12.61,0c1.352,0,2.038-0.267,2.367-1.644l2.305-8.634
					c0.303-1.576,0.002-2.153-1.448-2.153h-3.923c-2.328,0-2.579-1.474-1.32-6.172l10.628-39.795l2.013-7.532l12.691-47.52
					C372.954,769.477,372.793,768.804,370.979,768.804z"/>
			</g>
			<g>
				<path fill="#8C87CF" d="M726.281,768.804c0,0-24.121,0-25.394,0c-1.114,0-1.534,0.756-1.804,1.794l-24.734,91.331
					c-4.547,15.528,5.577,22.126,17.702,22.126c0.524,0,11.257,0,12.607,0c1.353,0,2.042-0.267,2.367-1.644l2.305-8.634
					c0.304-1.576,0.005-2.153-1.446-2.153h-3.923c-2.328,0-2.579-1.474-1.319-6.172l10.628-39.795l2.01-7.532l12.693-47.52
					C728.257,769.477,728.093,768.804,726.281,768.804z"/>
			</g>
		</g>
		<g>
			<g>
				<path fill="#8C87CF" d="M569.582,274.068c0.158,4.008,4.899,4.905,7.096,1.922c5.077-6.896,6.83-15.559,12.936-22.002
					c5.863-6.187,15.765-5.725,23.083-8.729c0.968-0.398,1.023-1.647,0-2.027C594.303,236.421,568.792,254.137,569.582,274.068z"/>
			</g>
			<g>
				<path fill="#8C87CF" d="M480.98,235.692c-2.31,0.022-2.442,3.01-0.512,3.783c7.606,3.049,15.193,5.568,19.842,12.592
					c4.543,6.865,3.945,15.251,7.636,22.258c1.556,2.954,7.092,2.637,7.601-0.994c1.303-9.3-3.793-19.571-9.858-26.511
					C499.126,239.311,491.053,235.596,480.98,235.692z"/>
			</g>
			<g>
				<path fill="#8C87CF" d="M481.258,187.713c0.701,3.031,1.152,7.347,3.235,9.825c4.206,5.002,17.152-6.288,19.634-9.269
					c7.121-8.555-2.651-14.719-9.204-19.509c-3.032-2.217-7.643-6.202-11.683-5.971c-5.196,0.295-5.151,5.169-4.819,9.312
					C479.035,177.368,480.063,182.552,481.258,187.713z M487.625,191.589C487.452,191.628,487.474,191.601,487.625,191.589
					L487.625,191.589z M492.406,175.208c1.441,1.053,7.518,4.888,7.7,6.635c0.217,2.099-3.783,4.806-5.168,5.826
					c-1.806,1.329-3.831,2.512-5.896,3.4c-0.016-0.057-0.031-0.114-0.047-0.171c-1.708-6.13-3.112-12.472-3.849-18.795
					c-0.05-0.614-0.098-1.227-0.147-1.84c0.709,0.386,1.394,0.842,2.013,1.211C488.883,172.595,490.646,173.92,492.406,175.208z"/>
			</g>
			<g>
				<path fill="#8C87CF" d="M639.569,200.211c1.214-0.224,1.919-0.916,2.232-1.764c2.822-3.627,2.573-9.943,2.577-14.132
					c0.003-5.63-1.051-12.283-3.459-17.409c-0.823-1.751-3.069-1.943-4.6-1.205c-3.711,1.788-7.089,5.871-10.043,8.674
					c-2.979,2.828-9.267,9.061-9.267,13.547C617.011,194.475,634.354,201.173,639.569,200.211z M636.31,173.691
					c0.844,3.157,1.192,6.708,1.325,9.627c0.107,2.331,0.609,7.812-0.709,10.401c-2.244-0.319-6.132-2.593-7.709-3.428
					c-1.381-0.73-2.703-1.57-4.018-2.411c-0.252-0.156-0.467-0.36-0.707-0.532c0.273-0.437,0.539-0.879,0.832-1.304
					C627.796,182.321,632.042,177.017,636.31,173.691z"/>
			</g>
			<g>
				<path fill="#8C87CF" d="M543.843,321.299c10.086,3.965,22.603,6.971,30.708-1.708c3.108-3.329-1.56-7.765-4.956-4.901
					c-0.934,0.786-4.379,4.525-5.135,4.833c-1.766,0.718-8.067-0.813-9.807-1.157c-4.735-0.934-10.299-4.17-15.029-4.091
					c-6.345,0.108-12.676,2.468-18.954,1.14c-4.769-1.011-5.182-6.685-10.18-6.349c0.001,0.007,0.003,0.013,0.005,0.019
					c-2.614,0.026-4.343,4.007-1.486,5.433c1.632,0.814,2.501,4.206,4.265,5.276c2.466,1.497,4.625,1.863,7.5,2.31
					C528.851,323.36,535.896,318.177,543.843,321.299z"/>
			</g>
			<g>
				<path fill="#8C87CF" d="M496.915,208.69c-1.393,1.239-1.207,3.488,0,4.754c7.075,7.419,12.499,16.149,18.592,24.355
					c4.216,5.679,6.285,7.805,13.824,6.828c4.237-0.549,4.291-7.279,0-6.723c-7.107,0.92-9.675-5.649-13.385-10.807
					c-3.602-5.008-7.02-9.999-10.953-14.675c2.881,0.059,6.316,1.463,8.909-0.003c3.308-1.87,4.425-4.476,6.73-7.29
					c5.442-6.647,12.167-0.236,17.199,2.514c3.127,1.71,7.161,1.214,10.291-0.177c6.103-2.713,14.822-8.959,18.857,0.143
					c1.448,3.271,3.179,5.717,6.682,6.78c1.466,0.445,4.85,0.832,5.81-0.694c-2.309,3.67-5.152,7.011-7.856,10.386
					c-1.989,2.482-3.921,5.01-5.848,7.542c-3.781,4.968-4.444,6.496-10.438,5.768c-0.862-0.104-1.541,0.091-2.055,0.46
					c0.48-0.735,0.871-1.503,0.98-2.288c0.256-1.833-1.695-3.263-3.206-1.851c-1.053,0.987-1.653,2.555-2.39,3.793
					c-0.411,0.692-0.803,1.398-1.187,2.106c-0.152,0.274-0.29,0.554-0.413,0.841c0.014-0.03-0.603,1.271-0.184,0.753
					c-0.935,1.155-0.061,2.707,1.423,2.448c1.525-0.267,2.371-2.244,3.192-3.383c0.247-0.344,0.532-0.706,0.819-1.081
					c-0.635,1.888,0.381,4.603,3.02,4.923c9.061,1.102,10.931-2.13,16.243-9.097c2.878-3.777,5.887-7.447,8.788-11.205
					c2.062-2.669,6.859-7.186,6.859-10.779c0-4.23-5.771-5.185-8.913-5.187c-6.867-0.004-5.997-9.306-12.767-11.066
					c-7.322-1.905-12.622,0.741-19.004,4.078c-6.126,3.204-12.333-4.927-18.962-5.258c-5.473-0.272-10.876,3.124-13.745,7.533
					c-2.666,4.094-6.367,2.525-10.495,2.056C500.931,204.917,498.529,207.256,496.915,208.69z"/>
			</g>
			<g>
				<path fill="#8C87CF" d="M629.727,242.812c-1.702-0.227-3.199,1.118-4.179,2.322c-0.499,0.616-0.155,1.377,0.611,1.477
					c0.446,0.059,0.931-0.109,1.384-0.33c0.03,0.037,0.047,0.057,0.084,0.102c0.295,0.263,0.604,0.496,0.937,0.71
					c0.828,0.535,1.396,1.433,2.13,2.086c1.382,1.229,3.477,0.376,3.579-1.479C634.421,245.063,632.185,243.141,629.727,242.812z"/>
			</g>
			<g>
				<path fill="#8C87CF" d="M529.785,257.441c-1.285,0.732-1.972,2.368-1.545,3.796c1.568,5.249,3.162,10.496,4.569,15.792
					c0.403,1.515,1.746,2.368,3.242,2.467c4.184,0.276,8.368,0.552,12.551,0.828c0.686,0.046,1.248-0.099,1.716-0.351
					c0.017-0.01,0.035-0.02,0.054-0.029c0.116-0.066,0.226-0.135,0.328-0.216c0.116-0.084,0.223-0.181,0.325-0.285
					c0.005-0.006,0.011-0.011,0.016-0.017c0.372-0.384,0.665-0.892,0.803-1.569c0.751-3.661,1.926-7.235,3.067-10.787
					c0.781-2.434,2.276-4.931,0.445-7.229C549.079,251.965,537.745,252.908,529.785,257.441z M535.512,262.101
					c4.558-1.911,9.822-2.22,13.621,0.999c-1.155,3.404-2.276,6.841-3.146,10.329c-2.446-0.161-4.892-0.323-7.338-0.483
					C537.648,269.317,536.592,265.705,535.512,262.101z"/>
			</g>
			<g>
				<ellipse fill="#8C87CF" cx="663.646" cy="504.315" rx="7.077" ry="9.082"/>
			</g>
			<g>
				<ellipse fill="#8C87CF" cx="666.674" cy="409.477" rx="7.08" ry="9.082"/>
			</g>
			<g>
				<path fill="#8C87CF" d="M544.097,242.04c0.616-0.354,1.189-1.17,1.108-1.917c-0.183-1.665-0.577-3.234-1.047-4.839
					c-0.437-1.493-0.562-3.22-1.375-4.554c-0.011,0.008-0.022,0.017-0.033,0.025c-0.587-0.934-2.1-1.178-2.711-0.015
					c-1.188,2.264-0.042,5.125,0.44,7.47c0.236,1.14,0.013,2.605,0.908,3.49C542.174,242.478,543.164,242.577,544.097,242.04z
					 M540.076,231.617c-0.018,0.072-0.012,0.139-0.018,0.208c-0.012-0.028-0.024-0.057-0.036-0.086
					C540.04,231.699,540.058,231.658,540.076,231.617z"/>
			</g>
			<g>
				<path fill="#8C87CF" d="M539.053,242.703c0.169-1.476-1.077-2.771-1.88-3.904c-0.749-1.058-1.323-2.327-2.177-3.287
					c-0.77-0.866-2.376-0.414-2.621,0.702c-0.325,1.482,0.397,2.993,1.064,4.292c0.697,1.357,1.281,3.083,2.586,3.929
					C537.419,245.342,538.893,244.102,539.053,242.703z"/>
			</g>
			<g>
				<path fill="#8C87CF" d="M732.358,533.958c-7.538-9.292-14.541-19.227-22.369-28.293c0.065-18.294,0.134-36.588,0.2-54.882
					c0.044-12.422,0.092-24.844,0.135-37.266c0.034-9.073-2.653-17.344-8.561-24.254c-5.545-6.482-14.228-6.923-22.507-6.747
					c0.555-1.583,0.902-3.253,0.977-5.017c0.423-10.124-5.794-19.271-14.362-23.142c0.263-10.779-0.337-22.265-4.229-32.334
					c13.313-4.204,25.691-10.418,35.828-21.771c2.125-2.38,1.753-5.262,0.268-7.269c1.135-24.505,0.071-55.483-17.632-73.744
					c1.369-36.022-6.971-75.667-24.256-107.234c-1.921-3.507-5.736-3.334-8.18-1.413c-0.067,0.042-0.133,0.062-0.2,0.108
					c-23.188,15.565-47.116,37.218-60.935,62.077c-15.952-5.031-32.717-6.795-49.5-5.468c-8.526-10.784-16.812-21.723-27.225-30.797
					c-12.734-11.096-28.136-18.139-44.06-23.352c-3.621-1.186-6.127,1.248-6.716,4.143c-0.55,0.587-1.003,1.325-1.287,2.255
					c-10.333,33.798-10.847,69.376-0.688,103.281c0.18,0.601,0.445,1.101,0.744,1.557c-10.455,23.863-11.383,50.873-3.945,76.195
					c0.566,1.924,1.818,3.062,3.276,3.585c6.608,8.725,14.817,13.003,26.14,16.516c3.809,1.181,7.445,2.628,10.973,4.251
					c-4.945,10.404-7.522,22.122-6.75,33.609c-26.255,10.026-51.453,22.839-71.122,43.34c-18.142,18.909-29.862,43.088-36.6,68.206
					c-11.623,43.325-7.969,87.384,8.281,127.618c-8.723,15.896-14.176,33.095-11.003,51.347
					c2.625,15.103,13.167,28.036,25.215,36.896c31.411,23.098,75.616,30.173,113.549,25.578c11.25-1.362,22.153-3.868,32.473-7.515
					c0.36,0.234,0.741,0.447,1.169,0.621c15.128,6.131,32.834,2.25,48.668,3.765c15.162,1.451,35.271,2.685,48.18-7.271
					c2.273-1.755,3.758-3.76,4.662-5.885c10.706,0.223,21.919,1.179,32.4-0.323c18.085-2.593,25.988-17.737,26.061-34.438
					c0.106-24.315,0.214-48.633,0.321-72.948c4.622-0.187,9.313-1.379,12.728-2.938c9.589-4.381,14.676-14.577,17.508-24.273
					C742.866,550.48,738.418,541.428,732.358,533.958z M667.508,369.373c5.118,6.737-0.899,13.501-5.706,17.703
					c-10.739,9.387-18.901,20.341-25.726,32.861c-11.621,21.321-19.658,46.065-16.952,70.471c0.096,0.859,0.193,1.72,0.291,2.579
					c-3.926-9.03-6.901-18.965-7.854-28.433c-2.245-32.8,7.811-72.164,33.106-94.908
					C651.514,363.492,661.08,360.912,667.508,369.373z M609.82,322.784c-3.402,0.694-6.777,1.398-10.132,2.143
					c0.943-1.875,1.844-3.804,2.639-5.759c2.963,0.223,5.771,0.881,8.784,1.561c1.721,0.389,2.697-1.54,1.625-2.816
					c-1.979-2.357-5.188-3.369-8.712-3.641c0.575-2.033,0.97-4.068,1.106-6.078c0.057-0.011,0.115-0.024,0.173-0.036
					c3.136-0.602,6.323-0.764,9.516-0.906c-0.144,4.847,1.101,9.506,4.109,13.292C615.861,321.226,612.818,321.958,609.82,322.784z
					 M496.647,313.633c-2.065-0.844-4.158-1.589-6.258-2.311c-0.112-1.245-0.237-2.525-0.316-3.811
					c1.695,0.288,3.389,0.628,5.077,0.852c0.239,0.098,0.501,0.125,0.764,0.103c0.009,0.001,0.017,0.002,0.024,0.003
					c0-0.001-0.001-0.003-0.003-0.006c1.264-0.122,2.557-1.476,1.639-2.825c-1.321-1.938-3.822-1.878-5.98-1.967
					c-0.507-0.021-1.021-0.05-1.537-0.082c0.104-1.497,0.372-2.946,0.906-4.293c2.504,0.714,4.956,1.564,7.161,2.708
					c1.741,1.579,5.267-1.546,2.44-3.56c-1.886-1.344-4.331-2.293-6.867-3.03c1.159-1.019,2.541-1.784,4.013-2.391
					c0.906,0.653,1.792,1.337,2.645,2.07c1.061,1.854,5.19-0.155,2.997-2.51c-0.315-0.338-0.654-0.644-0.985-0.961
					c1.283-0.264,2.554-0.457,3.749-0.608c8.395-1.061,17.166,0.312,25.353,2.126c0.295,0.066,0.575,0.087,0.846,0.084
					c1.641,2.951,4.555,6.981,5.406,8.43c0.978,1.664,1.605,1.77,4.697,1.907c1.705,0.078,3.298,0.218,4.137-0.828
					c0.711-0.886,3.213-4.497,5.084-7.624c0.398,0.035,0.826,0.007,1.289-0.131c11.816-3.505,26.966-4.486,38.323,1.073
					c-2.765,1.831-5.141,3.999-4.569,6.045c0.189,0.681,0.826,1.209,1.549,1.198c1.312-0.021,2.153-0.798,3.197-1.551
					c1.318-0.95,2.726-1.796,4.159-2.601c1.496,1.61,2.34,3.448,2.697,5.426c-3.499,0.69-7.122,1.716-9.284,3.767
					c-0.158,0.15-0.239,0.423-0.169,0.632c0.061,0.174,0.12,0.348,0.181,0.523c0.229,0.672,0.796,1.214,1.548,1.198
					c2.586-0.052,5.15-0.483,7.701-1.015c-0.248,1.594-0.683,3.223-1.25,4.85c-2.803,0.363-5.446,0.958-7.482,1.507
					c-1.573,0.425-1.618,2.788-0.008,3.199c1.816,0.465,3.616,0.407,5.43,0.245c-1.27,2.677-2.69,5.238-3.939,7.503
					c-6.101,1.556-12.134,3.359-18.124,5.632c-14.77,5.606-26.389,8.433-41.12,0.742
					C519.802,327.107,509.254,318.78,496.647,313.633z M494.356,305.705c0.005-0.003,0.012-0.006,0.017-0.01
					c-0.003,0.007-0.008,0.014-0.012,0.02C494.359,305.71,494.358,305.708,494.356,305.705z M486.023,293.612
					c-1.455-0.314-3.029-0.711-4.631-1.021c0.532-2.655,0.758-5.375,0.718-7.864c0.546,0.209,1.089,0.431,1.626,0.676
					c2.49,1.135,4.974,2.299,7.39,3.578c-1.932,1.355-3.394,2.956-4.461,4.768C486.452,293.704,486.228,293.657,486.023,293.612z
					 M472.314,293.159c-0.656,0.345-0.586,1.299,0.006,1.656c1.182,0.714,2.573,1.118,4.037,1.399
					c-1.456,2.693-3.529,4.895-6.18,6.051c-2.521-2.336-4.594-5.187-6.539-8.479c-2.287-8.916-3.454-17.958-3.424-26.929
					c7.865-1.002,14.697,4.991,17.45,12.283c-2.415-0.578-4.874-0.85-7.353-0.543c-0.926,0.115-1.624,1.475-0.54,1.985
					c2.876,1.354,5.958,2.104,9.014,3.026c0.311,2.693,0.038,5.7-0.787,8.541C476.005,292.037,474.053,292.244,472.314,293.159z
					 M624.344,319.387c-2.769-3.717-4.669-7.612-4.854-12.383c1.697-0.12,3.388-0.289,5.067-0.578
					c2.203-0.38,1.491-3.493-0.47-3.667c-1.412-0.125-2.845-0.21-4.284-0.267c1.456-8.346,7.678-15.028,15.029-18.736
					c8.982-4.533,20.167-1.416,25.855,6.688c5.17,7.367,2.765,14.246-1.076,20.662C648.347,314.919,636.237,316.941,624.344,319.387
					z M467.657,125.659c13.693,4.944,26.381,11.6,37.289,21.496c7.178,6.514,13.267,14.125,19.238,21.774
					c-0.662,0.115-1.326,0.208-1.988,0.333c-7.096,1.331-4.082,12.13,2.98,10.805c26.681-5.005,54.295-1.158,78.151,11.951
					c6.336,3.483,11.99-6.195,5.656-9.676c-3.847-2.113-7.781-3.979-11.774-5.654c12.226-20.978,32.078-39.614,51.837-53.505
					c13.253,26.643,19.959,58.571,19.991,88.465c-4.719,0.021-7.821,7.308-2.755,10.56c1.323,0.85,2.56,1.781,3.724,2.773
					c0.26,0.299,0.551,0.56,0.874,0.783c17.545,15.992,16.718,47.973,15.525,69.801c-5.924,5.701-12.617,9.779-19.786,12.862
					c2.054-6.097,2.003-12.755-1-19c-5.176-10.762-18.954-14.39-29.641-11.177c-10.207,3.068-18.378,13.527-20.581,24.193
					c-3.53,0.056-7.061,0.355-10.478,0.958c-0.446-2.635-1.49-5.176-3.302-7.555c2.163-1.229,4.273-2.564,6.391-3.86
					c4.205-2.57,9.265-3.524,13.863-5.145c2.345-0.826,1.439-4.128-0.994-3.704c-8.77,1.53-15.449,4.35-22.927,9.039
					c-0.002,0-0.004,0.001-0.005,0.002c-11.418-9.112-31.554-7.786-44.985-4.184c-0.756-1.068-1.95-1.915-3.382-1.979
					c-2.498-0.112-4.946,1.144-6.881,1.06c-1.936-0.088-2.464-1.2-6.443-1.084c-1.487,0.042-2.553,0.225-3.313,0.598
					c-11.668-2.562-24.226-4.055-35.821-0.472c-0.572,0.177-1.085,0.384-1.609,0.585c-2.489-1.381-5.103-2.571-7.684-3.746
					c-1.966-0.894-4.005-1.806-6.093-2.575c-0.083-0.495-0.176-0.974-0.284-1.418c-1.558-6.382-13.177-18.121-21.137-16.008
					c0.393-9.321,2.075-18.522,5.155-27.374c-0.034,0.383,0.067,0.766,0.396,1.019c0.633,0.484,1.236,0.521,1.92,0.751
					c0.886,0.529,1.883,0.913,2.768,1.451c0.762,0.464,1.75,0.427,2.513-0.008c0.579-0.33,1.024-0.821,1.145-1.495
					c0.209-1.176-0.15-2.151-1.161-2.823c-1.11-0.738-2.536-1.185-3.874-1.081c-0.967,0.076-2.662,0.482-3.32,1.245
					c-0.069,0.08-0.117,0.185-0.171,0.283c2.404-6.749,5.611-13.288,9.666-19.513c3.957-6.074-5.749-11.684-9.675-5.655
					c-0.119,0.182-0.22,0.371-0.337,0.553C458.715,182.248,459.682,153.525,467.657,125.659z M479.117,307.575
					c-1.819-0.624-3.444-1.392-4.93-2.282c2.814-1.785,4.786-4.909,6.059-8.507c1.108,0.15,2.196,0.316,3.204,0.579
					c0.499,0.128,1.009,0.256,1.52,0.384c-0.522,1.757-0.849,3.624-1.024,5.58c-1.383,0.018-2.751,0.119-4.074,0.394
					c-1.39,0.289-1.401,2.497-0.008,2.789c1.279,0.268,2.586,0.365,3.901,0.433c-0.015,0.717-0.019,1.44-0.013,2.171
					C482.205,308.611,480.659,308.103,479.117,307.575z M526.11,343.031c12.661,7.184,25.379,8.326,39.191,4.198
					c6.994-2.09,13.667-5.162,20.626-7.379c8.793-2.803,17.844-4.42,26.872-6.26c12.517-3.449,25.535-5.521,38.066-8.583
					c0.025,0.062,0.033,0.121,0.062,0.184c3.679,8.098,4.018,18.195,3.799,27.338c-2.197,0.237-4.427,0.814-6.641,1.81
					c-12.205,5.485-21.156,16.454-28.034,28.298c-7.506-0.049-15.009-0.098-22.515-0.146c-0.49-1.545-1.086-3.096-1.863-4.669
					c-2.639-5.324-7.103-9.798-11.899-13.165c-9.182-6.446-25.776-7.233-36.039-3.716c-10.429,3.574-17.961,12.706-23.54,21.883
					c-0.052,0-0.105,0-0.157,0c-1.135-11.562,1.115-25.787-12.464-29.854c-4.938-1.479-9.251-1.59-12.914-0.597
					c0.354-7.706,2.259-15.302,5.547-22.301C511.553,334.198,518.651,338.797,526.11,343.031z M588.946,411.187
					c-0.598,1.151-1.277,2.263-1.98,3.363c-0.326-0.664-0.639-1.351-0.907-2.102c-0.667-1.878-3.672-1.686-3.611,0.489
					c0.116,4.15-1.791,7.825-3.149,11.717c-1.416,4.062-4.688,4.961-8.681,4.939c-4.443-0.023-9.082-1.705-12.259-4.774
					c-2.689-2.597-1.992-6.79-4.363-9.488c-0.275-0.316-0.766-0.259-1.051,0c-0.659,0.597-1.149,1.31-1.521,2.089
					c-3.078-3.548-5.581-7.106-5.721-12.917c-0.2-8.312,4.903-14.963,5.498-23.028c0.114-1.559-2.362-2.286-3.018-0.817
					c-0.33,0.737-0.664,1.456-0.997,2.165c-3.157,0-6.314,0-9.47,0c2.828-3.708,6.099-7,10.177-9.607
					c7.957-5.089,18.592-2.997,27.056-0.422c9.898,3.01,12.889,14.358,14.313,23.146
					C590.195,401.695,591.787,405.714,588.946,411.187z M542.071,393.518c-2.101,4.817-3.649,9.766-3.777,16.023
					c-0.032,1.576,0.136,3.15,0.475,4.693c-4.634-6.635-8.787-13.56-11.848-20.717C531.971,393.518,537.021,393.518,542.071,393.518
					z M560.423,641.872c-16.868,15.719-38.237,21.981-60.554,22.835c14.09-12.151,27.322-25.381,39.598-39.327
					c6.369-7.235,14.953-16.352,20.128-26.192C561.455,613.229,561.77,627.521,560.423,641.872z M566.443,572.577
					c4.068,1.259,7.942,3.643,11.098,6.111c4.634,3.62,6.466,8.637,9.29,13.243c-1.25,12.637-5.761,23.829-12.695,33.957
					C574.376,607.972,571.511,589.972,566.443,572.577z M582.231,569.667c-4.633-3.315-12.369-7.275-18.834-6.716
					c-5.099-14.936-11.735-29.315-19.319-42.675c-7.176-12.641-15.955-25.558-26.253-37.1c0.003-0.056,0.018-0.104,0.019-0.162
					c0.121-9.139,0.243-18.278,0.364-27.417c17.993,21.788,39.037,41.063,53.249,65.821c9.212,16.045,14.15,33.846,15.427,52.112
					C585.387,572.099,583.812,570.797,582.231,569.667z M507.173,442.659c-0.13,9.761-0.259,19.523-0.389,29.284
					c-4.762-4.376-9.789-8.408-15.078-11.97c-0.014-9.483-0.027-18.965-0.042-28.447c-0.009-5.555-0.862-12.671-0.585-19.4
					c2.188,5.267,4.74,10.395,7.478,15.348c2.676,4.837,5.631,9.445,8.759,13.913C507.229,441.783,507.179,442.207,507.173,442.659z
					 M469.437,699.747c-24.07-3.815-49.809-11.758-67.791-28.947c-17.739-16.958-16.574-39.414-7.671-59.766
					c4.299,8.885,9.21,17.554,14.736,25.943c3.955,6.004,13.663,0.398,9.675-5.657c-15.209-23.097-26.448-48.028-31.637-75.283
					c-4.866-25.556-3.075-52.762,2.617-78.026c5.32-23.613,15.749-45.995,31.522-64.43c16.876-19.726,39.857-32.297,63.665-41.901
					c-0.06,0.412-0.135,0.81-0.183,1.23c-0.745,6.577-0.389,13.061,0.742,19.41c-6.937,10-4.677,24.272-4.66,35.834
					c0.013,8.403,0.025,16.806,0.037,25.208c-7.276-3.694-14.973-6.48-23.091-8.07c-4.938-0.966-6.817,5.837-2.07,7.514
					c35.631,12.584,60.539,41.211,79.074,73.126c10.832,18.652,18.525,38.685,22.836,59.427c-0.658,5.903-4.519,11.503-7.67,16.3
					c-5.666,8.621-12.53,16.469-19.44,24.102c-12.575,13.896-26.214,27.005-40.659,38.963c-19.981-0.644-40.273-5.039-58.395-10.397
					c-6.947-2.056-9.893,8.76-2.98,10.805c39.166,11.585,85.61,18.181,123.402-1.995c15.369-8.203,29.125-24.291,37.468-39.394
					c8.916-16.141,10.33-34.838,8.973-52.883c-3.291-43.829-29.023-75.832-58.141-106.439
					c-12.749-13.401-23.82-28.607-32.767-44.782c-4.777-8.638-8.5-17.763-10.631-27.411c-1.6-7.25-3.374-21.58,1.952-27.776
					c2.26-2.628,7.861-1.719,10.51-0.509c3.293,1.505,3.53,6.463,3.783,9.507c0.644,7.779,0.214,15.219,3.258,22.577
					c6.885,16.637,18.788,31.491,29.972,45.419c10.817,13.468,23.13,25.621,33.991,39.078
					c13.093,16.222,23.922,32.674,31.757,52.013c7.846,19.367,11.314,38.241,8.427,59.049c-0.274,1.979-0.583,3.948-0.907,5.913
					c-0.549,2.147-0.937,4.319-1.172,6.521c-3.522,17.797-9.454,34.883-19.593,50.193C571.333,695.05,515.181,707,469.437,699.747z
					 M630.475,598.136c0.742-1.655,1.494-3.292,2.261-4.876c4.046-8.358,11.298-17.247,21.198-17.955
					c9.847-0.704,19.467,7.074,24.679,14.719c5.839,8.563,7.672,20.189,8.641,30.257c1.869,19.421-14.411,42.964-35.77,39.437
					c-17.964-2.968-23.108-19.518-27.022-34.763C627.169,616.222,629.129,607.188,630.475,598.136z M624.239,696.885
					c-12.91,1.16-25.679-1.4-38.527-2.047c-5.816-0.293-11.629,0.414-17.452,0.254c11.628-6.412,22.12-14.581,31.03-24.536
					c3.914,1.226,7.593,1.896,11.995,1.653c8.041-0.442,15.15-1.735,20.706,5.604c3.439,4.541,8.528,5.681,8.799,12.097
					C641.025,695.497,627.652,696.578,624.239,696.885z M679.563,684.032c-9.497,0.445-19.097,0.098-28.625,0.004
					c-1.58-4.357-4.676-8.429-8.31-11.293c-2.781-2.194-3.947-5.861-7.038-7.72c-3.365-2.021-6.741-3.576-10.69-4.061
					c-4.618-0.568-9.004-0.169-13.615,0.308c-1.567,0.161-3.129,0.2-4.684,0.204c4.254-5.875,8.028-12.251,11.231-19.154
					c0.164-0.354,0.316-0.716,0.477-1.07c4.637,15.333,17.792,28.357,34.231,29.542c13.29,0.958,24.967-5.348,33.675-15.07
					c9.278-10.357,10.147-22.185,10.316-35.441c0.325-25.304-14.276-54.999-42.599-56.182c-8.37-0.349-15.662,4.331-21.419,10.316
					c-0.153-17.502-5.604-34.136-12.321-50.296c-14.195-34.165-40.285-59.344-63.617-87.209c-1.913-2.283-3.866-4.627-5.821-7.019
					c0.558,0.256,1.148,0.377,1.745,0.382c0.089,0.196,0.176,0.395,0.266,0.579c2.875,5.913,11.845,8.749,17.851,9.25
					c4.961,0.413,10.238-0.602,14.058-3.747c-0.193,0.829-0.33,1.689-0.33,2.6c0,5.015,3.167,9.082,7.079,9.082
					c3.908,0,7.078-4.067,7.078-9.082c0-5.017-3.17-9.083-7.078-9.083c-0.862,0-1.68,0.226-2.444,0.589
					c0.179-0.422,0.333-0.843,0.468-1.265c1.114-0.366,2.148-1.117,2.921-2.403c2.677-4.459,5.934-8.618,7.938-13.447
					c2.549-6.134,1.686-11.342,0.202-17.66c-0.157-0.667-0.296-1.322-0.435-1.975c4.711,0.03,9.421,0.062,14.13,0.093
					c-0.887,1.862-1.744,3.716-2.554,5.534c-9.111,20.467-12.822,42.906-11.295,65.216c1.497,14.878,6.775,29.762,13.676,42.974
					c1.905,3.65,4.781,8.789,9.214,9.701c3.782,0.778,6.042-1.192,7.281-3.966c3.413-0.653,6.036-4.391,6.036-8.946
					c0-4.108-2.137-7.536-5.055-8.659c-0.85-9.032-2.553-17.998-0.951-27.28c3.285-19.065,11.262-37.571,21.703-53.76
					c4.851-7.521,10.688-13.836,17.465-19.617c0.422-0.358,0.839-0.729,1.253-1.104c11.239,0.069,22.259-2.303,26.857,10.388
					c1.55,4.277,1.285,8.896,1.27,13.365c-0.05,13.763-0.101,27.524-0.151,41.286c-0.094,25.746-0.187,51.49-0.283,77.236
					c-9.108,3.587-17.407,12.152-18.464,20.238c-0.942,7.219,0.447,16.95,6.785,21.575c2.715,1.979,5.67,2.832,8.692,2.967
					c-0.129,0.971,0.143,1.996,0.953,2.777c0.577,0.558,1.23,1.023,1.919,1.449c-0.103,23.014-0.202,46.03-0.303,69.047
					C698.192,667.665,697.347,683.201,679.563,684.032z M724.972,571.236c-3.553,5.618-9.797,6.773-16.093,6.878
					c-0.012-0.017-0.02-0.035-0.031-0.052c0.92-0.381,1.824-0.776,2.699-1.179c1.152-0.53,0.621-2.606-0.663-2.448
					c-5.233,0.645-12.41,0.807-17.311-1.323c-5.537-2.405-6.178-10.479-5.39-15.625c0.981-6.404,7.191-10.51,12.818-12.566
					c5.508-2.012,10.607-0.229,16.046-1.324c2.051-0.413,2.386-3.024,1.158-4.39c-2.343-2.608-5.218-4.029-8.322-4.542
					c0.021-5.8,0.042-11.601,0.063-17.4c1.021,1.634,2.081,3.239,3.07,4.832c4.573,7.351,10.434,13.614,15.212,20.782
					C734.564,552.382,730.482,562.521,724.972,571.236z"/>
			</g>
			<g>
				<path fill="#8C87CF" d="M648.976,653.203c-1.297,0-2.594-0.502-3.573-1.502c-20.044-20.477-13.571-51.008-2.887-65.195
					c1.66-2.206,4.796-2.649,7.002-0.986c2.206,1.661,2.647,4.797,0.986,7.002c-4.699,6.239-7.82,15.646-8.146,24.551
					c-0.276,7.574,1.267,18.517,10.19,27.633c1.932,1.974,1.897,5.14-0.075,7.071C651.5,652.729,650.237,653.203,648.976,653.203z"
					/>
			</g>
		</g>
		<path fill="#8C87CF" d="M186.786,864.887"/>
	</g>
</g>
</svg>
