<?xml version="1.0" encoding="utf-8"?>
<!-- Generator: Adobe Illustrator 16.0.0, SVG Export Plug-In . SVG Version: 6.00 Build 0)  -->
<!DOCTYPE svg PUBLIC "-//W3C//DTD SVG 1.1//EN" "http://www.w3.org/Graphics/SVG/1.1/DTD/svg11.dtd">
<svg version="1.1" id="Layer_1" xmlns="http://www.w3.org/2000/svg" xmlns:xlink="http://www.w3.org/1999/xlink" x="0px" y="0px"
	 width="650px" height="86.846px" viewBox="0 10.021 650 86.846" enable-background="new 0 10.021 650 86.846" xml:space="preserve"
	>
<g id="logotype_B_x2F_W">
</g>
<g id="logotype">
	<g id="line">
		<polygon fill="#EDF7F3" points="637.589,79.382 39.251,79.382 13.934,49.444 295.189,49.444 295.189,51.259 17.845,51.259 
			40.093,77.569 637.589,77.569 		"/>
	</g>
	<g id="shadow">
		<path fill="#EDF7F3" d="M370.152,50.352h0.051c0-0.008,0.001-0.015,0.001-0.024c0-2.388-0.462-4.626-1.383-6.713
			c-0.923-2.085-2.17-3.9-3.742-5.442c-1.572-1.543-3.409-2.752-5.511-3.629c-2.102-0.877-4.348-1.315-6.736-1.315h-12.609v17.124
			h-0.05l14.288,17.027h12.61c2.359,0,4.229-0.437,5.608-1.315c1.381-0.876,2.21-2.086,2.489-3.628
			c0.277-1.542,0.009-3.35-0.806-5.42C373.554,54.965,372.15,52.743,370.152,50.352z M364.024,57.559
			c-0.246,0.771-0.807,1.346-1.684,1.725c-0.877,0.378-1.981,0.566-3.312,0.566h-1.996l-7.97-9.498h0.051v-9.594h2.086
			c1.421,0,2.729,0.213,3.925,0.636c1.193,0.423,2.223,1.042,3.084,1.859c0.861,0.817,1.535,1.814,2.018,2.994
			s0.725,2.541,0.725,4.082c0,0.009,0,0.016,0,0.024h-0.052c1.361,1.632,2.285,3.045,2.764,4.236
			C364.147,55.799,364.268,56.788,364.024,57.559z"/>
		<path fill="#EDF7F3" d="M63.895,50.352h0.05c0-0.008,0.001-0.015,0.001-0.024c0-2.388-0.462-4.626-1.383-6.713
			c-0.922-2.085-2.169-3.9-3.742-5.442c-1.572-1.543-3.409-2.752-5.511-3.629c-2.103-0.877-4.349-1.315-6.736-1.315H33.965v17.124
			h-0.05l14.289,17.027h12.609c2.36,0,4.229-0.437,5.609-1.315c1.38-0.876,2.211-2.086,2.488-3.628
			c0.279-1.542,0.01-3.35-0.806-5.42C67.297,54.965,65.893,52.743,63.895,50.352z M57.767,57.559
			c-0.245,0.771-0.807,1.346-1.685,1.725c-0.877,0.378-1.981,0.566-3.312,0.566h-1.995l-7.971-9.498h0.05v-9.594h2.086
			c1.421,0,2.729,0.213,3.924,0.636c1.194,0.423,2.223,1.042,3.085,1.859c0.861,0.817,1.535,1.814,2.019,2.994
			c0.483,1.179,0.725,2.541,0.725,4.082c0,0.009,0,0.016,0,0.024h-0.051c1.362,1.632,2.285,3.045,2.765,4.236
			C57.891,55.799,58.012,56.788,57.767,57.559z"/>
		<path fill="#EDF7F3" d="M611.236,60.87c-0.884-1.647-2.036-3.318-3.457-5.013c-1.167-1.391-2.396-2.591-3.684-3.604
			c-0.896-0.705-1.813-1.336-2.747-1.902h0.017c-0.188-0.231-0.388-0.452-0.603-0.658c-0.758-0.726-1.648-1.339-2.677-1.838
			c-1.028-0.499-2.133-0.929-3.312-1.292l-2.267-0.68c-0.394-0.121-0.816-0.264-1.27-0.431c-0.454-0.167-0.879-0.377-1.271-0.635
			c-0.394-0.257-0.726-0.558-0.997-0.908c-0.272-0.347-0.408-0.778-0.408-1.292c0-0.484,0.12-0.9,0.362-1.247
			c0.241-0.347,0.552-0.643,0.929-0.885c0.378-0.243,0.788-0.423,1.226-0.545c0.438-0.12,0.869-0.181,1.293-0.181
			c1.088,0,2.141,0.204,3.153,0.612c1.012,0.408,1.928,0.961,2.745,1.656l3.536-6.894c-0.757-0.424-1.579-0.81-2.471-1.157
			c-0.893-0.348-1.8-0.642-2.721-0.885c-0.924-0.242-1.861-0.431-2.815-0.566c-0.951-0.136-1.851-0.205-2.698-0.205
			c-1.724,0-3.304,0.272-4.738,0.816c-1.438,0.544-2.677,1.315-3.72,2.312c-1.044,0.998-1.862,2.209-2.451,3.629
			c-0.59,1.422-0.884,2.993-0.884,4.717c0,1.663,0.219,3.023,0.657,4.082c0.406,0.983,0.985,1.802,1.719,2.473h-0.003
			c0.067,0.035,0.136,0.075,0.205,0.109c1.4,0.696,2.853,1.263,4.353,1.701c1.503,0.439,3.115,0.855,4.835,1.248
			c0.612,0.152,1.302,0.318,2.073,0.499c0.773,0.182,1.566,0.424,2.379,0.727c0.814,0.302,1.586,0.664,2.32,1.088
			c0.733,0.423,1.366,0.953,1.897,1.588c0.51,0.605,0.819,1.128,0.929,1.564c0.111,0.439,0.077,0.793-0.104,1.065
			c-0.18,0.273-0.469,0.478-0.869,0.613c-0.399,0.137-0.856,0.204-1.37,0.204c-1.543,0-3.255-0.348-5.14-1.042
			c-1.884-0.696-3.792-1.528-5.721-2.495l2.202,7.166c2.795,1.24,5.498,2.199,8.11,2.882c2.612,0.68,5.007,1.02,7.185,1.02
			c1.725,0,3.221-0.25,4.497-0.748c1.274-0.499,2.111-1.323,2.506-2.473C612.363,63.917,612.121,62.52,611.236,60.87z"/>
		<polygon fill="#EDF7F3" points="117.543,59.851 112.595,53.953 122.619,53.953 119.597,50.352 119.646,50.352 119.646,46.473 
			109.622,46.473 109.622,40.758 120.19,40.758 120.19,33.228 100.732,33.228 100.732,50.352 100.682,50.352 114.971,67.379 
			134.429,67.379 128.111,59.851 		"/>
		<polygon fill="#EDF7F3" points="420.171,59.851 415.223,53.953 425.247,53.953 422.225,50.352 422.276,50.352 422.276,46.473 
			412.252,46.473 412.252,40.758 422.82,40.758 422.82,33.228 403.362,33.228 403.362,50.352 403.311,50.352 417.599,67.379 
			437.057,67.379 430.739,59.851 		"/>
		<polygon fill="#EDF7F3" points="176.055,59.851 168.084,50.352 168.135,50.352 168.135,33.228 159.245,33.228 159.245,50.352 
			159.194,50.352 173.482,67.379 193.031,67.379 186.714,59.851 		"/>
		<polygon fill="#EDF7F3" points="294.202,50.352 294.288,50.352 306.432,33.228 295.773,33.228 289.376,42.527 282.981,33.228 
			272.322,33.228 284.466,50.352 284.449,50.352 285.392,50.96 299.169,67.379 308.059,67.379 294.282,50.96 		"/>
		<polygon fill="#EDF7F3" points="477.774,59.851 469.805,50.352 469.856,50.352 469.856,33.228 460.967,33.228 460.967,50.352 
			460.915,50.352 475.204,67.379 494.752,67.379 488.435,59.851 		"/>
		<path fill="#EDF7F3" d="M551.395,58.853c-0.636-1.029-1.382-2.087-2.234-3.177c-0.854-1.088-1.737-2.175-2.649-3.265l-1.729-2.059
			h0.053V33.228h-8.892v17.124h-0.052l0.7,0.835c0.939,1.119,1.827,2.23,2.662,3.334c0.837,1.103,1.432,2.103,1.786,2.993
			c0.356,0.892,0.354,1.609-0.006,2.153c-0.36,0.546-1.25,0.818-2.672,0.818s-2.769-0.272-4.041-0.818
			c-1.274-0.544-2.481-1.263-3.624-2.153c-1.141-0.892-2.219-1.891-3.236-2.993c-1.019-1.104-1.995-2.215-2.935-3.334l-0.701-0.835
			h0.052V33.228h-8.889v17.124h-0.053l1.729,2.059c0.914,1.088,1.857,2.177,2.831,3.265c0.975,1.09,2.008,2.147,3.096,3.177
			c1.09,1.028,2.275,2.018,3.559,2.97c1.282,0.954,2.69,1.838,4.222,2.654c1.311,0.697,2.613,1.287,3.912,1.769
			c1.297,0.485,2.564,0.878,3.802,1.18c1.234,0.302,2.433,0.522,3.591,0.657c1.157,0.137,2.234,0.204,3.233,0.204
			c0.997,0,1.96-0.067,2.889-0.204c0.929-0.136,1.759-0.355,2.487-0.657s1.336-0.694,1.823-1.18c0.487-0.481,0.8-1.071,0.941-1.769
			c0.162-0.817,0.086-1.701-0.23-2.654C552.506,60.87,552.029,59.881,551.395,58.853z"/>
		<path fill="#EDF7F3" d="M239.672,50.352l-6.449-17.124h-9.707l-6.585,17.124h-0.069l7.739,17.027h9.435l-2.627-5.941h12.247
			l7.209,5.941h9.48l-20.702-17.027H239.672z M235.541,54.634h-7.393L226,50.352h0.066l2.212-6.555h0.091l2.185,6.555h-0.034
			L235.541,54.634z"/>
	</g>
	<g id="type">
		<path fill="#C3E7EF" d="M49.083,33.228h12.61c2.389,0,4.634,0.438,6.735,1.315c2.102,0.876,3.939,2.086,5.511,3.629
			c1.572,1.542,2.819,3.357,3.742,5.442c0.922,2.087,1.383,4.325,1.383,6.713c0,2.419-0.461,4.665-1.383,6.737
			c-0.923,2.071-2.17,3.877-3.742,5.419s-3.417,2.753-5.533,3.628c-2.116,0.878-4.354,1.315-6.712,1.315H49.083V33.228z
			 M57.973,59.899h1.997c1.33,0,2.591-0.188,3.787-0.566c1.194-0.379,2.237-0.952,3.13-1.725c0.891-0.771,1.602-1.761,2.131-2.97
			c0.529-1.21,0.793-2.647,0.793-4.31c0-1.542-0.242-2.903-0.726-4.082c-0.483-1.18-1.156-2.177-2.018-2.994
			c-0.861-0.816-1.89-1.436-3.084-1.859c-1.196-0.423-2.503-0.636-3.924-0.636h-2.087L57.973,59.899L57.973,59.899z"/>
		<path fill="#C3E7EF" d="M124.742,40.758v5.716h10.024v7.53h-10.024V59.9h10.568v7.53h-19.458V33.228h19.458v7.53H124.742z"/>
		<path fill="#C3E7EF" d="M183.254,59.899h10.659v7.529h-19.549v-34.2h8.891V59.899z"/>
		<path fill="#C3E7EF" d="M237.275,61.487l-2.359,5.941h-9.435l13.153-34.2h9.707l12.882,34.2h-9.479l-2.223-5.941H237.275z
			 M243.489,43.797h-0.091l-3.674,10.887h7.394L243.489,43.797z"/>
		<path fill="#C3E7EF" d="M287.441,33.228h10.66l6.396,9.299l6.395-9.299h10.659L308.94,51.009v16.419h-8.89V51.009L287.441,33.228z
			"/>
		<path fill="#C3E7EF" d="M354.435,33.228h12.611c2.389,0,4.633,0.438,6.734,1.315c2.102,0.876,3.939,2.086,5.512,3.629
			c1.572,1.542,2.82,3.357,3.742,5.442c0.921,2.087,1.382,4.325,1.382,6.713c0,2.419-0.461,4.665-1.382,6.737
			c-0.922,2.071-2.17,3.877-3.742,5.419s-3.417,2.753-5.534,3.628c-2.116,0.878-4.354,1.315-6.712,1.315h-12.611V33.228z
			 M363.326,59.899h1.996c1.331,0,2.593-0.188,3.787-0.566s2.237-0.952,3.13-1.725c0.892-0.771,1.602-1.761,2.131-2.97
			c0.529-1.21,0.794-2.647,0.794-4.31c0-1.542-0.243-2.903-0.726-4.082c-0.484-1.18-1.155-2.177-2.018-2.994
			c-0.861-0.816-1.889-1.436-3.084-1.859c-1.195-0.423-2.502-0.636-3.924-0.636h-2.087L363.326,59.899L363.326,59.899z"/>
		<path fill="#C3E7EF" d="M427.372,40.758v5.716h10.023v7.53h-10.023V59.9h10.568v7.53h-19.46V33.228h19.46v7.53H427.372z"/>
		<path fill="#C3E7EF" d="M484.976,59.899h10.658v7.529h-19.548v-34.2h8.89V59.899z"/>
		<path fill="#C3E7EF" d="M559.953,33.228v19.233c0,1.088-0.03,2.177-0.09,3.264c-0.062,1.091-0.204,2.148-0.43,3.177
			c-0.228,1.028-0.584,2.018-1.066,2.971c-0.483,0.953-1.149,1.838-1.995,2.652c-0.726,0.696-1.537,1.287-2.427,1.771
			c-0.895,0.484-1.832,0.878-2.813,1.18c-0.983,0.302-1.997,0.521-3.039,0.657c-1.043,0.136-2.064,0.203-3.062,0.203
			c-0.999,0-2.02-0.067-3.061-0.203c-1.043-0.137-2.057-0.355-3.041-0.657c-0.981-0.302-1.92-0.695-2.812-1.18
			c-0.892-0.483-1.701-1.073-2.425-1.771c-0.848-0.815-1.513-1.7-1.997-2.652c-0.483-0.951-0.839-1.942-1.065-2.971
			c-0.226-1.028-0.371-2.086-0.431-3.177c-0.062-1.087-0.092-2.176-0.092-3.264V33.228h8.892v18.008
			c0,1.119,0.044,2.229,0.138,3.334c0.089,1.104,0.329,2.103,0.724,2.993c0.394,0.892,0.998,1.61,1.814,2.154
			s1.934,0.816,3.356,0.816c1.422,0,2.539-0.272,3.356-0.816c0.816-0.544,1.421-1.263,1.814-2.154
			c0.392-0.892,0.634-1.89,0.725-2.993c0.09-1.104,0.135-2.215,0.135-3.334V33.228H559.953z"/>
		<path fill="#C3E7EF" d="M613.386,42.027c-0.816-0.695-1.73-1.248-2.744-1.656s-2.064-0.612-3.153-0.612
			c-0.423,0-0.854,0.061-1.293,0.181c-0.438,0.122-0.848,0.302-1.224,0.545c-0.379,0.243-0.688,0.538-0.932,0.885
			c-0.24,0.347-0.36,0.763-0.36,1.247c0,0.514,0.135,0.945,0.406,1.292c0.274,0.348,0.605,0.65,0.998,0.908
			c0.394,0.257,0.817,0.469,1.271,0.635c0.454,0.167,0.878,0.31,1.271,0.431l2.269,0.68c1.177,0.364,2.281,0.793,3.312,1.292
			c1.027,0.499,1.918,1.112,2.675,1.838c0.754,0.725,1.354,1.595,1.791,2.607c0.438,1.014,0.658,2.216,0.658,3.606
			c0,1.694-0.249,3.364-0.749,5.012c-0.498,1.649-1.427,3.048-2.788,4.197c-1.36,1.149-2.888,1.973-4.581,2.473
			c-1.694,0.497-3.402,0.747-5.127,0.747c-2.177,0-4.286-0.34-6.327-1.02c-2.04-0.682-3.938-1.641-5.692-2.881l3.812-7.168
			c1.118,0.969,2.329,1.801,3.628,2.495c1.3,0.696,2.723,1.044,4.265,1.044c0.514,0,1.027-0.068,1.541-0.204
			c0.513-0.137,0.975-0.341,1.383-0.613c0.409-0.271,0.741-0.627,0.998-1.065c0.257-0.438,0.386-0.959,0.386-1.564
			c0-0.635-0.188-1.164-0.565-1.588c-0.381-0.424-0.849-0.786-1.407-1.088c-0.56-0.303-1.147-0.546-1.77-0.727
			c-0.62-0.181-1.171-0.347-1.654-0.499c-1.393-0.392-2.653-0.808-3.788-1.248c-1.135-0.438-2.107-1.004-2.926-1.701
			c-0.815-0.695-1.442-1.571-1.882-2.63c-0.438-1.059-0.658-2.419-0.658-4.082c0-1.724,0.296-3.295,0.884-4.717
			c0.592-1.42,1.407-2.631,2.45-3.629c1.044-0.998,2.283-1.77,3.721-2.312c1.436-0.544,3.015-0.816,4.739-0.816
			c0.846,0,1.746,0.068,2.699,0.205c0.953,0.135,1.889,0.324,2.812,0.566c0.921,0.243,1.829,0.538,2.722,0.885
			c0.891,0.348,1.716,0.733,2.472,1.157L613.386,42.027z"/>
	</g>
</g>
</svg>
